<svg width="40" height="32" viewBox="0 0 40 32" fill="none" xmlns="http://www.w3.org/2000/svg">
<path d="M4 0C2.93913 0 1.92172 0.421427 1.17157 1.17157C0.421427 1.92172 0 2.93913 0 4V12C1.06087 12 2.07828 12.4214 2.82843 13.1716C3.57857 13.9217 4 14.9391 4 16C4 17.0609 3.57857 18.0783 2.82843 18.8284C2.07828 19.5786 1.06087 20 0 20V28C0 29.0609 0.421427 30.0783 1.17157 30.8284C1.92172 31.5786 2.93913 32 4 32H36C37.0609 32 38.0783 31.5786 38.8284 30.8284C39.5786 30.0783 40 29.0609 40 28V20C38.9391 20 37.9217 19.5786 37.1716 18.8284C36.4214 18.0783 36 17.0609 36 16C36 14.9391 36.4214 13.9217 37.1716 13.1716C37.9217 12.4214 38.9391 12 40 12V4C40 2.93913 39.5786 1.92172 38.8284 1.17157C38.0783 0.421427 37.0609 0 36 0H4ZM27 6L30 9L13 26L10 23L27 6ZM13.62 6.08C15.58 6.08 17.16 7.66 17.16 9.62C17.16 10.5589 16.787 11.4593 16.1232 12.1232C15.4593 12.787 14.5589 13.16 13.62 13.16C11.66 13.16 10.08 11.58 10.08 9.62C10.08 8.68113 10.453 7.78072 11.1168 7.11684C11.7807 6.45296 12.6811 6.08 13.62 6.08ZM26.38 18.84C28.34 18.84 29.92 20.42 29.92 22.38C29.92 23.3189 29.547 24.2193 28.8832 24.8832C28.2193 25.547 27.3189 25.92 26.38 25.92C24.42 25.92 22.84 24.34 22.84 22.38C22.84 21.4411 23.213 20.5407 23.8768 19.8768C24.5407 19.213 25.4411 18.84 26.38 18.84Z" fill="#0AA5A5"/>
</svg>
