<svg width="15" height="15" viewBox="0 0 15 15" fill="none" xmlns="http://www.w3.org/2000/svg">
<path d="M8.03475 11.0343C8.17825 10.8903 8.25 10.712 8.25 10.4995V7.49951C8.25 7.28701 8.178 7.10901 8.034 6.96551C7.89 6.82201 7.712 6.75001 7.5 6.74951C7.288 6.74901 7.11 6.82101 6.966 6.96551C6.822 7.11001 6.75 7.28801 6.75 7.49951V10.4995C6.75 10.712 6.822 10.8903 6.966 11.0343C7.11 11.1783 7.288 11.25 7.5 11.2495C7.712 11.249 7.89025 11.1778 8.03475 11.0343ZM8.03475 5.03351C8.17825 4.89001 8.25 4.71201 8.25 4.49951C8.25 4.28701 8.178 4.10901 8.034 3.96551C7.89 3.82201 7.712 3.75001 7.5 3.74951C7.288 3.74901 7.11 3.82101 6.966 3.96551C6.822 4.11001 6.75 4.28801 6.75 4.49951C6.75 4.71101 6.822 4.88926 6.966 5.03426C7.11 5.17926 7.288 5.25101 7.5 5.24951C7.712 5.24801 7.89025 5.17601 8.03475 5.03351ZM7.5 14.9995C6.4625 14.9995 5.4875 14.8025 4.575 14.4085C3.6625 14.0145 2.86875 13.4803 2.19375 12.8058C1.51875 12.1313 0.984501 11.3375 0.591001 10.4245C0.197501 9.51151 0.000500949 8.53651 9.49367e-07 7.49951C-0.000499051 6.46251 0.196501 5.48751 0.591001 4.57451C0.985501 3.66151 1.51975 2.86776 2.19375 2.19326C2.86775 1.51876 3.6615 0.984512 4.575 0.590512C5.4885 0.196512 6.4635 -0.000488281 7.5 -0.000488281C8.5365 -0.000488281 9.5115 0.196512 10.425 0.590512C11.3385 0.984512 12.1323 1.51876 12.8063 2.19326C13.4803 2.86776 14.0148 3.66151 14.4098 4.57451C14.8048 5.48751 15.0015 6.46251 15 7.49951C14.9985 8.53651 14.8015 9.51151 14.409 10.4245C14.0165 11.3375 13.4823 12.1313 12.8063 12.8058C12.1303 13.4803 11.3365 14.0148 10.425 14.4093C9.5135 14.8038 8.5385 15.0005 7.5 14.9995ZM7.5 13.4995C9.175 13.4995 10.5938 12.9183 11.7563 11.7558C12.9187 10.5933 13.5 9.17451 13.5 7.49951C13.5 5.82451 12.9187 4.40576 11.7563 3.24326C10.5938 2.08076 9.175 1.49951 7.5 1.49951C5.825 1.49951 4.40625 2.08076 3.24375 3.24326C2.08125 4.40576 1.5 5.82451 1.5 7.49951C1.5 9.17451 2.08125 10.5933 3.24375 11.7558C4.40625 12.9183 5.825 13.4995 7.5 13.4995Z" fill="#0AA5A5"/>
</svg>
