<svg width="23" height="20" viewBox="0 0 23 20" fill="none" xmlns="http://www.w3.org/2000/svg">
<path d="M0.75 0.75H4.12482L6.65594 14.6586H20.1552M6.65581 11.3865H19.8092C19.9067 11.3866 20.0013 11.3539 20.0768 11.2939C20.1523 11.234 20.204 11.1505 20.2231 11.0577L21.7418 3.69433C21.7541 3.63496 21.7526 3.57369 21.7374 3.51494C21.7223 3.45619 21.6939 3.40143 21.6543 3.35461C21.6147 3.3078 21.5649 3.27009 21.5084 3.24421C21.452 3.21833 21.3903 3.20493 21.3279 3.20497H4.96839M8.34373 17.9318C8.34373 18.3837 7.96599 18.75 7.50002 18.75C7.03405 18.75 6.65631 18.3837 6.65631 17.9318C6.65631 17.48 7.03405 17.1137 7.50002 17.1137C7.96599 17.1137 8.34373 17.48 8.34373 17.9318ZM20.1559 17.9318C20.1559 18.3837 19.7781 18.75 19.3122 18.75C18.8462 18.75 18.4685 18.3837 18.4685 17.9318C18.4685 17.48 18.8462 17.1137 19.3122 17.1137C19.7781 17.1137 20.1559 17.48 20.1559 17.9318Z" stroke="#0AA5A5" stroke-width="1.5" stroke-linecap="round" stroke-linejoin="round"/>
</svg>
