<svg width="22" height="20" viewBox="0 0 22 20" fill="none" xmlns="http://www.w3.org/2000/svg">
<path d="M0.268619 1.90842C0.0880747 1.69865 4.26173e-06 1.4326 4.26173e-06 1.11027C4.26173e-06 0.787932 0.0880747 0.52188 0.268619 0.312107C0.449164 0.102335 0.678147 7.10289e-06 0.955569 7.10289e-06H21.0444C21.3219 7.10289e-06 21.5508 0.102335 21.7314 0.312107C21.9119 0.52188 22 0.787932 22 1.11027C22 1.4326 21.9119 1.69865 21.7314 1.90842C21.5508 2.1182 21.3219 2.22052 21.0444 2.22052H0.955569C0.678147 2.22052 0.449164 2.1182 0.268619 1.90842ZM21.7314 9.20441C21.9119 9.41418 22 9.68023 22 10.0026C22 10.3249 21.9119 10.591 21.7314 10.8007C21.5508 11.0105 21.3219 11.1128 21.0444 11.1128H0.955569C0.678147 11.1128 0.449164 11.0105 0.268619 10.8007C0.0880747 10.591 4.26173e-06 10.3249 4.26173e-06 10.0026C4.26173e-06 9.68023 0.0880747 9.41418 0.268619 9.20441C0.449164 8.99463 0.678147 8.89231 0.955569 8.89231H21.0444C21.3219 8.89231 21.5508 8.99463 21.7314 9.20441ZM21.7314 18.0916C21.9119 18.3014 22 18.5674 22 18.8897C22 19.2121 21.9119 19.4781 21.7314 19.6879C21.5508 19.8977 21.3219 20 21.0444 20H0.955569C0.678147 20 0.449164 19.8977 0.268619 19.6879C0.0880747 19.4781 4.26173e-06 19.2121 4.26173e-06 18.8897C4.26173e-06 18.5674 0.0880747 18.3014 0.268619 18.0916C0.449164 17.8818 0.678147 17.7795 0.955569 17.7795H21.0444C21.3219 17.7795 21.5508 17.8869 21.7314 18.0916Z" fill="#0AA5A5"/>
</svg>
