<svg width="28" height="26" viewBox="0 0 28 26" fill="none" xmlns="http://www.w3.org/2000/svg">
<path d="M14.5712 0.213475C14.4056 0.0751312 14.2016 0 13.9916 0C13.7816 0 13.5776 0.0751312 13.412 0.213475L0 11.4187L1.16013 12.9907L2.8 11.6207V24C2.80099 24.5301 2.99797 25.0382 3.34782 25.413C3.69768 25.7879 4.1719 25.9989 4.66667 26H23.3333C23.8281 25.9989 24.3023 25.7879 24.6522 25.413C25.002 25.0382 25.199 24.5301 25.2 24V11.6297L26.8399 12.9997L28 11.4277L14.5712 0.213475ZM15.8667 24H12.1333V15.9998H15.8667V24ZM17.7333 24V15.9998C17.7328 15.4695 17.536 14.9611 17.1861 14.5861C16.8361 14.2112 16.3616 14.0003 15.8667 13.9998H12.1333C11.6384 14.0003 11.1639 14.2112 10.8139 14.5861C10.464 14.9611 10.2672 15.4695 10.2667 15.9998V24H4.66667V10.0617L14 2.27152L23.3333 10.0717V24H17.7333Z" fill="#0AA5A5"/>
</svg>
