<svg width="21" height="20" viewBox="0 0 21 20" fill="none" xmlns="http://www.w3.org/2000/svg">
<path fill-rule="evenodd" clip-rule="evenodd" d="M20.5904 17.7333L15.2537 12.6267C16.2691 11.278 16.8131 9.65931 16.8085 8C16.8085 3.58667 13.0406 0 8.40423 0C3.7679 0 0 3.58667 0 8C0 12.4133 3.7679 16 8.40423 16C10.2252 16 11.878 15.4533 13.2647 14.52L18.6294 19.6C18.8955 19.8667 19.2597 20 19.6099 20C19.9601 20 20.3382 19.88 20.5904 19.6C20.7202 19.4766 20.8232 19.3301 20.8935 19.1688C20.9638 19.0075 21 18.8346 21 18.66C21 18.4854 20.9638 18.3125 20.8935 18.1512C20.8232 17.9899 20.7202 17.8434 20.5904 17.72V17.7333ZM8.40423 14.2667C4.77641 14.2667 1.82092 11.4533 1.82092 8C1.82092 4.54667 4.77641 1.73333 8.40423 1.73333C12.0321 1.73333 14.9875 4.54667 14.9875 8C14.9875 11.4533 12.0321 14.2667 8.40423 14.2667Z" fill="#0AA5A5"/>
</svg>
