<svg width="51" height="52" viewBox="0 0 51 52" fill="none" xmlns="http://www.w3.org/2000/svg">
<rect width="51" height="52" rx="25.5" fill="#F4FFFE"/>
<path fill-rule="evenodd" clip-rule="evenodd" d="M25.5 14.5C26.7398 14.5 28.0114 14.5316 29.2439 14.5834L30.6997 14.6524L32.0932 14.7343L33.3982 14.822L34.59 14.914C35.8837 15.0116 37.1012 15.5586 38.0279 16.4587C38.9547 17.3589 39.5314 18.5543 39.6564 19.8346L39.7143 20.4455L39.8231 21.7536C39.9246 23.1092 40 24.5869 40 26C40 27.4131 39.9246 28.8908 39.8231 30.2464L39.7143 31.5545L39.6564 32.1654C39.5313 33.4459 38.9545 34.6416 38.0274 35.5417C37.1003 36.4418 35.8825 36.9887 34.5886 37.086L33.3996 37.1766L32.0946 37.2657L30.6997 37.3476L29.2439 37.4166C27.9967 37.4702 26.7484 37.498 25.5 37.5C24.2516 37.498 23.0033 37.4702 21.7561 37.4166L20.3003 37.3476L18.9069 37.2657L17.6019 37.1766L16.41 37.086C15.1163 36.9884 13.8988 36.4414 12.9721 35.5413C12.0453 34.6411 11.4686 33.4457 11.3436 32.1654L11.2857 31.5545L11.1769 30.2464C11.0665 28.8335 11.0075 27.4171 11 26C11 24.5869 11.0754 23.1092 11.1769 21.7536L11.2857 20.4455L11.3436 19.8346C11.4686 18.5545 12.045 17.3593 12.9715 16.4592C13.898 15.5591 15.1151 15.0119 16.4085 14.914L17.599 14.822L18.904 14.7343L20.2989 14.6524L21.7547 14.5834C23.0024 14.5298 24.2511 14.502 25.5 14.5ZM22.6 22.5141V29.4859C22.6 30.1501 23.325 30.5641 23.905 30.2334L29.995 26.7475C30.1275 26.6719 30.2376 26.563 30.3141 26.4317C30.3907 26.3005 30.431 26.1516 30.431 26C30.431 25.8484 30.3907 25.6995 30.3141 25.5683C30.2376 25.437 30.1275 25.3281 29.995 25.2525L23.905 21.768C23.7727 21.6923 23.6226 21.6524 23.4699 21.6524C23.3171 21.6525 23.167 21.6924 23.0348 21.7681C22.9025 21.8439 22.7927 21.9529 22.7163 22.0841C22.64 22.2153 22.5999 22.3641 22.6 22.5155V22.5141Z" fill="#004E5A"/>
</svg>
