<svg width="30" height="35" viewBox="0 0 30 35" fill="none" xmlns="http://www.w3.org/2000/svg">
<path d="M20.5834 23.917L21.2848 23.0599L19.6558 21.0469L18.9574 21.904L20.5834 23.917ZM23.6369 22.7005L26.5766 24.6662L27.6765 22.1726L24.7384 20.2088L23.6369 22.7005ZM27.1412 28.5712L24.9568 31.2445L26.5828 33.2556L28.7672 30.5842L27.1412 28.5712ZM23.6246 32.1034C21.3941 32.3607 15.6254 32.1318 9.37672 24.4921L7.74919 26.5033C14.567 34.8411 21.0572 35.2497 23.84 34.93L23.6246 32.1034ZM9.37672 24.4921C3.4219 17.2082 2.4343 11.0839 2.31123 8.42577L0.00683485 8.58658C0.160667 11.9315 1.38363 18.7198 7.74919 26.5033L9.37672 24.4921ZM11.4919 12.7999L11.9334 12.2588L10.3089 10.2477L9.86745 10.7869L11.4919 12.7999ZM12.2841 5.38163L10.3459 2.19561L8.49835 3.89835L10.4366 7.08249L12.2841 5.38163ZM3.82186 1.50126L1.4067 4.45269L3.03424 6.46572L5.44786 3.51429L3.82186 1.50126ZM10.6797 11.7934C9.86437 10.7869 9.86437 10.7869 9.86437 10.7907H9.86129L9.85668 10.7983C9.78358 10.8889 9.71812 10.9884 9.66131 11.0953C9.57824 11.2467 9.48748 11.4453 9.41057 11.6969C9.22332 12.3465 9.17666 13.0448 9.2752 13.7232C9.48133 15.3597 10.3982 17.5222 12.7456 20.3942L14.3732 18.3812C12.1749 15.6946 11.6519 14.06 11.555 13.2881C11.5088 12.921 11.5565 12.7394 11.5704 12.6978C11.5796 12.6725 11.5796 12.6688 11.5704 12.6864C11.5567 12.7125 11.5412 12.7372 11.5242 12.7602L11.5088 12.7791L11.4934 12.7962L10.6797 11.7934ZM12.7456 20.3942C15.0946 23.2662 16.8622 24.3862 18.1944 24.6359C18.8758 24.7646 19.425 24.6624 19.8419 24.4713C20.0754 24.3663 20.2936 24.2155 20.488 24.0248L20.5649 23.9397L20.5757 23.9283L20.5803 23.9227L20.5818 23.9189C20.5818 23.9189 20.5834 23.917 19.7696 22.9105C18.9543 21.904 18.9589 21.9021 18.9589 21.9021L18.962 21.8983L18.9651 21.8945L18.9743 21.885L18.9897 21.8661L19.0481 21.8094C19.0625 21.798 19.0589 21.7993 19.0374 21.8131C18.9989 21.8302 18.8481 21.8888 18.5451 21.8321C17.9082 21.711 16.5699 21.0677 14.3732 18.3812L12.7456 20.3942ZM10.3459 2.19371C8.77678 -0.379327 5.69399 -0.787986 3.82186 1.50126L5.44786 3.51429C6.26625 2.51345 7.71842 2.61751 8.49835 3.89835L10.3459 2.19371ZM2.31277 8.42766C2.28201 7.77305 2.5266 7.08817 3.03424 6.46761L1.40517 4.45458C0.579089 5.46488 -0.0716193 6.89519 0.00683485 8.58658L2.31277 8.42766ZM24.9568 31.2445C24.5353 31.7629 24.08 32.0542 23.6262 32.1053L23.84 34.93C24.9706 34.7994 25.8952 34.0994 26.5843 33.2575L24.9568 31.2445ZM11.9334 12.2588C13.4486 10.4066 13.5609 7.4798 12.2857 5.38353L10.4382 7.08438C11.0581 8.10414 10.9658 9.44174 10.3074 10.2496L11.9334 12.2588ZM26.5782 24.6681C27.835 25.5081 28.0304 27.4871 27.1427 28.573L28.7703 30.5842C30.8316 28.0622 30.1963 23.8564 27.6781 22.1745L26.5782 24.6681ZM21.2848 23.0618C21.8755 22.3391 22.8262 22.1613 23.6385 22.7024L24.7399 20.2107C23.0724 19.0944 21.0049 19.4028 19.6573 21.0488L21.2848 23.0618Z" fill="#004E5A"/>
</svg>
