<svg width="59" height="52" viewBox="0 0 59 52" fill="none" xmlns="http://www.w3.org/2000/svg">
<path d="M22.4311 44.6396C23.4178 44.6396 24.2177 43.8532 24.2177 42.8833C24.2177 41.9133 23.4178 41.127 22.4311 41.127C21.4444 41.127 20.6445 41.9133 20.6445 42.8833C20.6445 43.8532 21.4444 44.6396 22.4311 44.6396Z" stroke="#004E5A" stroke-width="1.5" stroke-linecap="round" stroke-linejoin="round"/>
<path d="M47.4448 44.6396C48.4315 44.6396 49.2314 43.8532 49.2314 42.8833C49.2314 41.9133 48.4315 41.127 47.4448 41.127C46.4581 41.127 45.6582 41.9133 45.6582 42.8833C45.6582 43.8532 46.4581 44.6396 47.4448 44.6396Z" stroke="#004E5A" stroke-width="1.5" stroke-linecap="round" stroke-linejoin="round"/>
<path d="M8.13867 6H15.285L20.6448 35.8572H49.2302" stroke="#004E5A" stroke-width="1.5" stroke-linecap="round" stroke-linejoin="round"/>
<path d="M20.6435 28.8326H48.4964C48.703 28.8327 48.9032 28.7625 49.0631 28.6338C49.2229 28.5051 49.3324 28.3259 49.3729 28.1268L52.5888 12.32C52.6147 12.1926 52.6116 12.061 52.5796 11.9349C52.5475 11.8088 52.4874 11.6913 52.4035 11.5908C52.3197 11.4903 52.2142 11.4093 52.0946 11.3538C51.9751 11.2982 51.8445 11.2694 51.7123 11.2695H17.0703" stroke="#004E5A" stroke-width="1.5" stroke-linecap="round" stroke-linejoin="round"/>
</svg>
