<svg width="10" height="9" viewBox="0 0 10 9" fill="none" xmlns="http://www.w3.org/2000/svg">
<path d="M0.5 0.5H1.94635L3.03112 6.68161H8.81653M3.03106 5.22734H8.66822C8.71003 5.22737 8.75056 5.21282 8.78291 5.18618C8.81526 5.15954 8.83742 5.12244 8.84563 5.08121L9.49648 1.80859C9.50174 1.7822 9.5011 1.75497 9.49461 1.72886C9.48813 1.70275 9.47596 1.67841 9.45899 1.65761C9.44202 1.6368 9.42066 1.62004 9.39647 1.60854C9.37227 1.59704 9.34584 1.59108 9.31908 1.5911H2.30788M3.75445 8.13638C3.75445 8.3372 3.59257 8.5 3.39287 8.5C3.19317 8.5 3.03128 8.3372 3.03128 8.13638C3.03128 7.93555 3.19317 7.77275 3.39287 7.77275C3.59257 7.77275 3.75445 7.93555 3.75445 8.13638ZM8.81681 8.13638C8.81681 8.3372 8.65492 8.5 8.45522 8.5C8.25552 8.5 8.09363 8.3372 8.09363 8.13638C8.09363 7.93555 8.25552 7.77275 8.45522 7.77275C8.65492 7.77275 8.81681 7.93555 8.81681 8.13638Z" stroke="#004E5A" stroke-linecap="round" stroke-linejoin="round"/>
</svg>
