<svg width="55" height="37" viewBox="0 0 55 37" fill="none" xmlns="http://www.w3.org/2000/svg">
<path d="M0.00152969 33.146V18.5008H55V33.146C54.9972 34.1673 54.5939 35.1459 53.8782 35.868C53.1626 36.5902 52.1927 36.9971 51.1807 37H3.76893C3.27535 37.0007 2.7867 36.9009 2.33229 36.7064C1.87787 36.512 1.46704 36.227 1.12442 35.8685L1.12289 35.8669C0.767324 35.5213 0.48459 35.1068 0.291638 34.6483C0.0986865 34.1897 -0.000508313 33.6966 1.9587e-06 33.1984V33.1429L0.00152969 33.146ZM15.2789 27.7504V30.8336H24.4453V27.7504H15.2789ZM6.11247 27.7504V30.8336H12.2234V27.7504H6.11247ZM51.1807 0.00154358C52.1927 0.00439119 53.1626 0.411352 53.8782 1.1335C54.5939 1.85565 54.9972 2.83428 55 3.85555V9.25116H0.00152969V3.80313C0.000821556 3.30508 0.0997764 2.812 0.292463 2.35346C0.48515 1.89492 0.767601 1.48036 1.12289 1.13462L1.12442 1.13308C1.46691 0.774289 1.87769 0.488989 2.33211 0.294285C2.78653 0.0995823 3.27524 -0.000512927 3.76893 1.97648e-06H3.82392H3.82087L51.1807 0.00154358Z" fill="#004E5A"/>
</svg>
