<svg width="50" height="50" viewBox="0 0 50 50" fill="none" xmlns="http://www.w3.org/2000/svg">
<g filter="url(#filter0_d_454_17816)">
<rect x="4" y="4" width="42" height="42" rx="21" fill="white" shape-rendering="crispEdges"/>
<path opacity="0.987" fill-rule="evenodd" clip-rule="evenodd" d="M23.9172 16.0825C24.9016 15.9725 25.484 15.9725 26.5417 16.0825C28.4138 16.3596 30.1494 17.225 31.4973 18.5535C30.5864 19.4145 29.6875 20.2881 28.8009 21.1739C27.1029 19.7347 25.2075 19.4026 23.1149 20.1774C21.5797 20.8834 20.5108 22.0275 19.908 23.6097C18.9229 22.8763 17.9506 22.1258 16.9916 21.3586C16.925 21.3235 16.8489 21.3106 16.7744 21.3219C18.2977 18.3847 20.6782 16.6378 23.9159 16.0811" fill="#F44336"/>
<path opacity="0.997" fill-rule="evenodd" clip-rule="evenodd" d="M16.7715 21.3207C16.8484 21.309 16.9213 21.3212 16.9901 21.3574C17.949 22.1246 18.9213 22.8751 19.9064 23.6085C19.7514 24.225 19.6537 24.8545 19.6145 25.4889C19.648 26.1026 19.7453 26.705 19.9064 27.2961L16.8448 29.7332C15.5115 26.9471 15.4871 24.143 16.7715 21.3207Z" fill="#FFC107"/>
<path opacity="0.999" fill-rule="evenodd" clip-rule="evenodd" d="M31.3514 32.6849C30.3981 31.8442 29.4001 31.0555 28.3618 30.3225C29.4027 29.5875 30.0344 28.5791 30.2571 27.2975H25.1562V23.7552C28.0979 23.7307 31.0382 23.7556 33.9772 23.8298C34.5348 26.8576 33.8908 29.5875 32.0452 32.0196C31.8257 32.2529 31.5933 32.4749 31.3514 32.6849Z" fill="#448AFF"/>
<path opacity="0.993" fill-rule="evenodd" clip-rule="evenodd" d="M19.9063 27.2969C21.0196 30.0639 23.0607 31.3555 26.0295 31.1718C26.8629 31.0753 27.662 30.7842 28.3621 30.3219C29.4011 31.0568 30.3977 31.8443 31.3517 32.6843C29.8401 34.0426 27.9128 34.8486 25.8843 34.9707C25.4234 35.0075 24.9603 35.0075 24.4994 34.9707C21.0436 34.5634 18.4921 32.8174 16.8447 29.7326L19.9063 27.2969Z" fill="#43A047"/>
</g>
<defs>
<filter id="filter0_d_454_17816" x="0" y="0" width="50" height="50" filterUnits="userSpaceOnUse" color-interpolation-filters="sRGB">
<feFlood flood-opacity="0" result="BackgroundImageFix"/>
<feColorMatrix in="SourceAlpha" type="matrix" values="0 0 0 0 0 0 0 0 0 0 0 0 0 0 0 0 0 0 127 0" result="hardAlpha"/>
<feOffset/>
<feGaussianBlur stdDeviation="2"/>
<feComposite in2="hardAlpha" operator="out"/>
<feColorMatrix type="matrix" values="0 0 0 0 0 0 0 0 0 0 0 0 0 0 0 0 0 0 0.25 0"/>
<feBlend mode="normal" in2="BackgroundImageFix" result="effect1_dropShadow_454_17816"/>
<feBlend mode="normal" in="SourceGraphic" in2="effect1_dropShadow_454_17816" result="shape"/>
</filter>
</defs>
</svg>
