<svg width="38" height="33" viewBox="0 0 38 33" fill="none" xmlns="http://www.w3.org/2000/svg">
<path d="M1 1H6.78541L11.1245 24.9537H34.2661M11.1242 19.3184H33.6729C33.8401 19.3186 34.0023 19.2622 34.1316 19.1589C34.261 19.0557 34.3497 18.912 34.3825 18.7522L36.9859 6.0708C37.0069 5.96854 37.0044 5.86301 36.9785 5.76184C36.9525 5.66066 36.9038 5.56635 36.836 5.48572C36.7681 5.40509 36.6827 5.34015 36.5859 5.29558C36.4891 5.25102 36.3834 5.22794 36.2763 5.22801H8.23153M14.0178 30.591C14.0178 31.3691 13.3703 32 12.5715 32C11.7727 32 11.1251 31.3691 11.1251 30.591C11.1251 29.8128 11.7727 29.1819 12.5715 29.1819C13.3703 29.1819 14.0178 29.8128 14.0178 30.591ZM34.2672 30.591C34.2672 31.3691 33.6197 32 32.8209 32C32.0221 32 31.3745 31.3691 31.3745 30.591C31.3745 29.8128 32.0221 29.1819 32.8209 29.1819C33.6197 29.1819 34.2672 29.8128 34.2672 30.591Z" stroke="#004E5A" stroke-width="2" stroke-linecap="round" stroke-linejoin="round"/>
</svg>
