<svg width="9" height="9" viewBox="0 0 9 9" fill="none" xmlns="http://www.w3.org/2000/svg">
<path d="M4.88195 0.722364C4.84414 0.65492 4.78905 0.598768 4.72234 0.559685C4.65563 0.520602 4.57971 0.5 4.50239 0.5C4.42507 0.5 4.34915 0.520602 4.28244 0.559685C4.21572 0.598768 4.16063 0.65492 4.12283 0.722364C4.03394 0.884138 3.94846 1.04799 3.86638 1.21391C3.6078 1.73877 3.38795 2.28183 3.2086 2.83876C3.14682 3.03031 2.96371 3.1632 2.75393 3.16897C2.11802 3.18569 1.48418 3.24882 0.857471 3.35786C0.513468 3.4183 0.384134 3.81029 0.62858 4.0494C0.684284 4.10421 0.740581 4.15829 0.79747 4.21162C1.22283 4.61332 1.67258 4.9884 2.14415 5.3347C2.30726 5.45426 2.37437 5.65914 2.31215 5.84669C2.07512 6.55914 1.90549 7.29227 1.80548 8.03642C1.76103 8.37197 2.12015 8.60885 2.43215 8.44885C3.05084 8.13163 3.64246 7.76419 4.20105 7.35021C4.28855 7.28635 4.39407 7.25194 4.50239 7.25194C4.61071 7.25194 4.71623 7.28635 4.80372 7.35021C5.3622 7.76435 5.95384 8.13181 6.57263 8.44885C6.88418 8.60885 7.24374 8.37197 7.1993 8.03642C7.18211 7.9105 7.1633 7.78531 7.14285 7.66087C7.04018 7.04536 6.88965 6.43879 6.69263 5.84669C6.6304 5.65914 6.69707 5.45426 6.86063 5.3347C7.39562 4.94271 7.90209 4.51319 8.37619 4.0494C8.62064 3.81029 8.49175 3.4183 8.1473 3.35786C7.52068 3.24818 6.88679 3.18505 6.25085 3.16897C6.1503 3.16737 6.05269 3.13481 5.97133 3.07572C5.88996 3.01662 5.8288 2.93388 5.79618 2.83876C5.56004 2.10574 5.25388 1.39671 4.88195 0.722364Z" stroke="#0AA5A5" stroke-linecap="round" stroke-linejoin="round"/>
</svg>
