<svg width="15" height="14" viewBox="0 0 15 14" fill="none" xmlns="http://www.w3.org/2000/svg">
<path fill-rule="evenodd" clip-rule="evenodd" d="M3.72349 0.18694C3.78422 0.246048 3.8324 0.316266 3.86527 0.393572C3.89815 0.470878 3.91507 0.553752 3.91507 0.637449C3.91507 0.721146 3.89815 0.804021 3.86527 0.881327C3.8324 0.958633 3.78422 1.02885 3.72349 1.08796L2.22751 2.54639H9.13089C10.6875 2.54639 12.1803 3.14974 13.281 4.22373C14.3816 5.29771 15 6.75435 15 8.27319C15 9.79204 14.3816 11.2487 13.281 12.3227C12.1803 13.3966 10.6875 14 9.13089 14H3.91391C3.74095 14 3.57508 13.933 3.45278 13.8136C3.33049 13.6943 3.26178 13.5324 3.26178 13.3637C3.26178 13.1949 3.33049 13.0331 3.45278 12.9137C3.57508 12.7944 3.74095 12.7274 3.91391 12.7274H9.13089C10.3416 12.7274 11.5027 12.2581 12.3587 11.4228C13.2148 10.5875 13.6958 9.45452 13.6958 8.27319C13.6958 7.09187 13.2148 5.95893 12.3587 5.12361C11.5027 4.28829 10.3416 3.81901 9.13089 3.81901H2.22751L3.72349 5.27744C3.78412 5.3366 3.83221 5.40683 3.86503 5.48413C3.89784 5.56143 3.91473 5.64428 3.91473 5.72794C3.91473 5.81161 3.89784 5.89446 3.86503 5.97176C3.83221 6.04906 3.78412 6.11929 3.72349 6.17845C3.66285 6.23762 3.59087 6.28455 3.51165 6.31656C3.43244 6.34858 3.34753 6.36506 3.26178 6.36506C3.17604 6.36506 3.09113 6.34858 3.01191 6.31656C2.93269 6.28455 2.86071 6.23762 2.80008 6.17845L0.191586 3.63321C0.130856 3.5741 0.0826733 3.50388 0.0497978 3.42657C0.0169224 3.34927 0 3.26639 0 3.1827C0 3.099 0.0169224 3.01613 0.0497978 2.93882C0.0826733 2.86151 0.130856 2.7913 0.191586 2.73219L2.80008 0.18694C2.86066 0.127683 2.93262 0.0806688 3.01184 0.0485904C3.09107 0.0165121 3.17601 0 3.26178 0C3.34756 0 3.43249 0.0165121 3.51172 0.0485904C3.59095 0.0806688 3.66291 0.127683 3.72349 0.18694Z" fill="#606060"/>
</svg>
