<svg width="26" height="26" viewBox="0 0 26 26" fill="none" xmlns="http://www.w3.org/2000/svg">
<rect x="0.5" y="0.5" width="25" height="25" rx="12.5" fill="#0AA5A5"/>
<rect x="0.5" y="0.5" width="25" height="25" rx="12.5" stroke="#F4FFFE"/>
<path d="M13 7C13.7956 7 14.5587 7.31607 15.1213 7.87868C15.6839 8.44129 16 9.20435 16 10C16 10.7956 15.6839 11.5587 15.1213 12.1213C14.5587 12.6839 13.7956 13 13 13C12.2044 13 11.4413 12.6839 10.8787 12.1213C10.3161 11.5587 10 10.7956 10 10C10 9.20435 10.3161 8.44129 10.8787 7.87868C11.4413 7.31607 12.2044 7 13 7ZM13 19C13 19 19 19 19 17.5C19 15.7 16.075 13.75 13 13.75C9.925 13.75 7 15.7 7 17.5C7 19 13 19 13 19Z" fill="#F4FFFE"/>
</svg>
