<svg width="50" height="50" viewBox="0 0 50 50" fill="none" xmlns="http://www.w3.org/2000/svg">
<path fill-rule="evenodd" clip-rule="evenodd" d="M44.4376 5.6C47.3438 8.68333 49.0042 12.8958 49.5979 17.5229C50.1896 21.9708 49.9521 24.9958 49.9521 24.9958C49.9521 24.9958 50.1312 28.0208 49.5375 32.4688C48.9458 37.0938 47.2834 41.3083 44.3772 44.3917C41.2939 47.2979 37.0815 48.9583 32.4565 49.5521C28.0066 50.0854 24.9816 49.9688 24.9816 49.9688C24.9816 49.9688 21.9588 50.1437 17.5089 49.5521C12.8839 48.9583 8.67149 47.2979 5.58821 44.3917C2.682 41.3083 1.01953 37.0958 0.427872 32.4688C-0.107536 28.0208 0.0112121 24.9958 0.0112121 24.9958C0.0112121 24.9958 -0.107536 21.9708 0.486205 17.5229C1.07995 12.8958 2.74034 8.68542 5.64654 5.6C8.72982 2.69375 12.9423 1.03333 17.5693 0.439583C22.0171 -0.09375 25.0421 0.025 25.0421 0.025C25.0421 0.025 28.067 -0.152083 32.5149 0.441667C37.1398 1.03333 41.3522 2.69375 44.4376 5.6ZM13.7131 17.7H9.26523V30.8083H11.6964V27.0729H13.7131C14.4256 27.0729 15.0776 26.9521 15.611 26.7146C16.1443 26.4771 16.6797 26.1229 17.0943 25.7083C17.5292 25.2888 17.8725 24.7838 18.1026 24.225C18.3401 23.6313 18.4568 23.0375 18.4568 22.3854C18.4606 21.7556 18.3403 21.1312 18.1026 20.5479C17.8725 19.9891 17.5292 19.4841 17.0943 19.0646C16.6748 18.6296 16.1697 18.2863 15.611 18.0562C15.008 17.8163 14.3641 17.696 13.7152 17.7021L13.7131 17.7ZM11.6381 24.7583V19.8958H13.5339C13.8922 19.8958 14.2464 19.9542 14.5443 20.0729C14.8353 20.1957 15.0977 20.3773 15.3151 20.6062C15.4922 20.8437 15.6693 21.0812 15.7901 21.3771C15.9089 21.675 15.9672 21.9708 15.9672 22.3271C15.9672 22.6812 15.9089 22.9792 15.7901 23.2771C15.6837 23.5686 15.518 23.835 15.3036 24.0595C15.0892 24.2839 14.8307 24.4616 14.5443 24.5812C14.2225 24.7038 13.8803 24.7639 13.536 24.7583H11.6381ZM22.1942 30.4521C22.8483 30.6896 23.44 30.8083 24.0942 30.8083C24.8046 30.8083 25.3983 30.6896 25.99 30.4521C26.5837 30.1562 27.1191 29.8 27.4733 29.325V30.8083H29.9066V20.25H27.4733V21.6146C27.0587 21.1979 26.5837 20.8437 25.992 20.6062C25.3894 20.3604 24.7429 20.2399 24.0921 20.2521C23.3817 20.2521 22.7879 20.3687 22.1359 20.6062C21.5421 20.8437 20.9484 21.1396 20.4755 21.6146C19.9817 22.091 19.5792 22.6537 19.288 23.275C18.9922 23.9271 18.8734 24.7 18.8734 25.5292C18.8734 26.3604 19.0526 27.1313 19.3484 27.7833C19.6442 28.4354 20.0609 28.9708 20.5359 29.4438C21.0088 29.8604 21.6025 30.2146 22.1942 30.4521ZM25.7546 28.3771C25.3983 28.5542 24.9837 28.6146 24.5087 28.6146C24.0834 28.6029 23.6627 28.5227 23.2629 28.3771L23.2546 28.3729C22.9004 28.1958 22.5484 28.0187 22.2546 27.725C22.0054 27.4106 21.787 27.0729 21.6025 26.7167C21.4348 26.3438 21.3536 25.9379 21.365 25.5292C21.365 25.1146 21.4234 24.7 21.6025 24.3438C21.7213 23.9896 21.9567 23.6917 22.2546 23.3937C22.5418 23.1088 22.8852 22.8867 23.2629 22.7417C23.6796 22.5646 24.0942 22.5042 24.5087 22.5042C24.9254 22.5042 25.3379 22.5646 25.7546 22.8021C26.1691 22.9792 26.465 23.1562 26.7629 23.4542C27.0587 23.6917 27.2358 24.0479 27.4149 24.4042C27.592 24.7583 27.6524 25.175 27.6524 25.5896C27.6524 26.0042 27.592 26.4187 27.4149 26.7771C27.2542 27.1285 27.0335 27.4492 26.7629 27.725C26.465 28.0208 26.1108 28.2 25.7546 28.3771ZM36.2523 27.4875L33.2857 20.3104H30.7357L35.0065 30.3354L32.8128 35.6125H35.3023L41.5314 20.3104H38.9793L36.2523 27.4875Z" fill="#1428A0"/>
</svg>
