<svg width="20" height="20" viewBox="0 0 20 20" fill="none" xmlns="http://www.w3.org/2000/svg">
<path d="M13.0121 7.47502L12.1926 7.33881C12.1728 7.45779 12.1792 7.57965 12.2113 7.69591C12.2433 7.81218 12.3004 7.92007 12.3783 8.01207C12.4563 8.10407 12.5534 8.17799 12.6629 8.22868C12.7723 8.27936 12.8915 8.30561 13.0121 8.30558V7.47502ZM0.830558 7.47502V6.64447C0.610281 6.64447 0.399025 6.73197 0.243265 6.88773C0.0875049 7.04349 0 7.25475 0 7.47502H0.830558ZM3.04538 19.3797H15.6256V17.7186H3.04538V19.3797ZM16.9545 6.64447H13.0121V8.30558H16.9545V6.64447ZM13.8316 7.61124L14.7241 2.2569L13.0852 1.98337L12.1926 7.33881L13.8316 7.61124ZM12.8127 0H12.5758V1.66112H12.8116L12.8127 0ZM9.11953 1.84938L6.33439 6.02764L7.71644 6.949L10.5016 2.77074L9.11953 1.84938ZM5.18268 6.64447H0.830558V8.30558H5.18268V6.64447ZM0 7.47502V16.3343H1.66112V7.47502H0ZM18.6123 16.9323L19.9412 10.2878L18.3133 9.96116L16.9844 16.6056L18.6123 16.9323ZM6.33439 6.02764C6.20804 6.21732 6.0368 6.37176 5.83589 6.47937C5.63497 6.58697 5.4106 6.6433 5.18268 6.64336V8.30447C6.2015 8.30447 7.15166 7.79617 7.71644 6.949L6.33439 6.02764ZM14.7241 2.2569C14.7703 1.97935 14.7554 1.69397 14.6806 1.42274C14.6058 1.1515 14.4729 0.899808 14.291 0.685145C14.1091 0.470481 13.8826 0.297998 13.6274 0.17968C13.3721 0.0613629 13.0941 4.91319e-05 12.8127 0L12.8116 1.66112C12.8518 1.66122 12.8925 1.67004 12.9289 1.68698C12.9653 1.70393 12.9976 1.72858 13.0235 1.75924C13.0494 1.78989 13.0683 1.82581 13.079 1.86452C13.0896 1.90322 13.0918 1.94378 13.0852 1.98337L14.7241 2.2569ZM16.9545 8.30447C17.8293 8.30447 18.4827 9.10403 18.3121 9.96006L19.9412 10.2867C20.0293 9.84499 20.0183 9.38808 19.909 8.95108C19.7998 8.51407 19.5949 8.10675 19.3092 7.75847C19.0235 7.41019 18.6642 7.12962 18.257 6.93699C17.8498 6.74435 17.4049 6.64444 16.9545 6.64447V8.30447ZM15.6256 19.3797C16.3296 19.3798 17.0119 19.135 17.5564 18.6888C18.1009 18.2426 18.474 17.6215 18.6123 16.9312L16.9844 16.6045C16.9216 16.9186 16.7519 17.2012 16.5041 17.4041C16.2563 17.607 15.9458 17.7189 15.6256 17.7186V19.3797ZM12.5758 0C11.8921 4.96654e-05 11.2191 0.167767 10.6163 0.490384C10.0136 0.813 9.49983 1.27943 9.12064 1.84827L10.5016 2.77074C10.7292 2.42928 11.0376 2.14822 11.3995 1.95464C11.7613 1.76106 12.1654 1.66096 12.5758 1.66112V0ZM3.04538 17.7186C2.28127 17.7186 1.66112 17.0984 1.66112 16.3343H0C0 17.142 0.320852 17.9166 0.891971 18.4877C1.46309 19.0588 2.2377 19.3797 3.04538 19.3797V17.7186Z" fill="#0AA5A5"/>
<path d="M5.26001 7.47656V18.5507" stroke="#0AA5A5" stroke-width="2"/>
</svg>
