<svg width="60" height="60" viewBox="0 0 60 60" fill="none" xmlns="http://www.w3.org/2000/svg">
<path d="M53.125 32.5V21.25C53.125 17.9348 51.808 14.7554 49.4638 12.4112C47.1196 10.067 43.9402 8.75 40.625 8.75H19.375C16.0598 8.75 12.8804 10.067 10.5362 12.4112C8.19196 14.7554 6.875 17.9348 6.875 21.25V38.75C6.875 40.3915 7.19832 42.017 7.82651 43.5335C8.45469 45.0501 9.37543 46.4281 10.5362 47.5888C12.8804 49.933 16.0598 51.25 19.375 51.25H35.025" stroke="#C9C9C9" stroke-width="3" stroke-linecap="round" stroke-linejoin="round"/>
<path d="M7.52499 42.5001L14.375 34.5001C15.2746 33.6066 16.4553 33.0514 17.7172 32.9284C18.9791 32.8054 20.2448 33.1221 21.3 33.8251C22.3552 34.528 23.6209 34.8448 24.8828 34.7218C26.1447 34.5988 27.3254 34.0436 28.225 33.1501L34.05 27.3251C35.7237 25.6457 37.9397 24.6156 40.3026 24.4187C42.6654 24.2218 45.0214 24.8709 46.95 26.2501L53.125 31.0251M20.025 25.4251C20.57 25.4218 21.109 25.3112 21.6112 25.0996C22.1135 24.888 22.5691 24.5796 22.9522 24.1919C23.3352 23.8042 23.6381 23.3449 23.8437 22.8401C24.0492 22.3354 24.1533 21.7951 24.15 21.2501C24.1467 20.7051 24.0361 20.1661 23.8245 19.6638C23.6129 19.1616 23.3045 18.7059 22.9168 18.3229C22.5291 17.9399 22.0698 17.6369 21.565 17.4314C21.0603 17.2259 20.52 17.1218 19.975 17.1251C18.8743 17.1317 17.8214 17.5753 17.0478 18.3583C16.2742 19.1412 15.8434 20.1994 15.85 21.3001C15.8566 22.4007 16.3002 23.4537 17.0832 24.2272C17.8661 25.0008 18.9243 25.4317 20.025 25.4251Z" stroke="#C9C9C9" stroke-width="3" stroke-linecap="round" stroke-linejoin="round"/>
<path d="M46.7675 37.5V50" stroke="#C9C9C9" stroke-width="3" stroke-miterlimit="10" stroke-linecap="round"/>
<path d="M52.5 42.762L47.5825 37.8445C47.4757 37.7372 47.3486 37.652 47.2088 37.5939C47.0689 37.5358 46.919 37.5059 46.7675 37.5059C46.6161 37.5059 46.4661 37.5358 46.3262 37.5939C46.1864 37.652 46.0594 37.7372 45.9525 37.8445L41.035 42.762" stroke="#C9C9C9" stroke-width="3" stroke-linecap="round" stroke-linejoin="round"/>
</svg>
