<svg width="14" height="16" viewBox="0 0 14 16" fill="none" xmlns="http://www.w3.org/2000/svg">
<path d="M7 1.6C6.27802 1.6 5.58561 1.895 5.0751 2.4201C4.56458 2.9452 4.27778 3.65739 4.27778 4.4C4.27778 5.14261 4.56458 5.8548 5.0751 6.3799C5.58561 6.905 6.27802 7.2 7 7.2C7.72198 7.2 8.41439 6.905 8.9249 6.3799C9.43542 5.8548 9.72222 5.14261 9.72222 4.4C9.72222 3.65739 9.43542 2.9452 8.9249 2.4201C8.41439 1.895 7.72198 1.6 7 1.6ZM2.72222 4.4C2.72222 3.23305 3.17291 2.11389 3.97515 1.28873C4.77739 0.46357 5.86546 0 7 0C8.13454 0 9.22261 0.46357 10.0248 1.28873C10.8271 2.11389 11.2778 3.23305 11.2778 4.4C11.2778 5.56695 10.8271 6.68611 10.0248 7.51127C9.22261 8.33643 8.13454 8.8 7 8.8C5.86546 8.8 4.77739 8.33643 3.97515 7.51127C3.17291 6.68611 2.72222 5.56695 2.72222 4.4ZM0 13.6C0 12.5391 0.409721 11.5217 1.13903 10.7716C1.86834 10.0214 2.85749 9.6 3.88889 9.6H10.1111C11.1425 9.6 12.1317 10.0214 12.861 10.7716C13.5903 11.5217 14 12.5391 14 13.6V16H0V13.6ZM3.88889 11.2C3.27005 11.2 2.67656 11.4529 2.23897 11.9029C1.80139 12.353 1.55556 12.9635 1.55556 13.6V14.4H12.4444V13.6C12.4444 12.9635 12.1986 12.353 11.761 11.9029C11.3234 11.4529 10.7299 11.2 10.1111 11.2H3.88889Z" fill="#004E5A"/>
</svg>
