<svg width="14" height="15" viewBox="0 0 14 15" fill="none" xmlns="http://www.w3.org/2000/svg">
<path d="M9.60539 10.2493L9.93274 9.88199L9.17251 9.01927L8.84659 9.38657L9.60539 10.2493ZM11.0304 9.72793L12.4023 10.5704L12.9155 9.50171L11.5444 8.66007L11.0304 9.72793ZM12.6657 12.2439L11.6463 13.3897L12.4051 14.2516L13.4245 13.1067L12.6657 12.2439ZM11.0246 13.7578C9.98372 13.868 7.29166 13.7699 4.37563 10.4958L3.61611 11.3577C6.79776 14.931 9.8265 15.1062 11.1251 14.9692L11.0246 13.7578ZM4.37563 10.4958C1.59671 7.37409 1.13583 4.74943 1.0784 3.61021L0.00301056 3.67913C0.0747987 5.11268 0.645515 8.02194 3.61611 11.3577L4.37563 10.4958ZM5.36271 5.48485L5.56874 5.25295L4.81066 4.39104L4.60463 4.62212L5.36271 5.48485ZM5.73242 2.30558L4.82789 0.940137L3.96572 1.66989L4.87025 3.03452L5.73242 2.30558ZM1.78336 0.642561L0.656283 1.90746L1.4158 2.77018L2.54216 1.50529L1.78336 0.642561ZM4.98367 5.05349C4.60319 4.62212 4.60319 4.62212 4.60319 4.62375H4.60176L4.59961 4.62699C4.56549 4.66584 4.53494 4.70849 4.50843 4.75429C4.46967 4.81916 4.42731 4.90429 4.39142 5.01214C4.30404 5.29051 4.28226 5.58978 4.32825 5.88054C4.42444 6.58191 4.8523 7.50869 5.94779 8.73953L6.7073 7.8768C5.68145 6.72542 5.43737 6.02486 5.39215 5.69404C5.37061 5.53674 5.39286 5.4589 5.39932 5.44106C5.40363 5.43025 5.40363 5.42863 5.39932 5.4362C5.39292 5.44739 5.38572 5.45797 5.37779 5.46782L5.37061 5.47593L5.36343 5.48323L4.98367 5.05349ZM5.94779 8.73953C7.04399 9.97037 7.86884 10.4504 8.49052 10.5574C8.80854 10.6126 9.06483 10.5688 9.25937 10.4869C9.36835 10.4419 9.47016 10.3772 9.56088 10.2955L9.59678 10.259L9.6018 10.2542L9.60396 10.2517L9.60467 10.2501C9.60467 10.2501 9.60539 10.2493 9.22563 9.81794C8.84515 9.38657 8.84731 9.38576 8.84731 9.38576L8.84874 9.38414L8.85018 9.38252L8.85449 9.37847L8.86167 9.37036L8.88895 9.34603C8.89565 9.34117 8.89397 9.34171 8.88392 9.34765C8.86597 9.35495 8.79562 9.38009 8.6542 9.35576C8.357 9.30387 7.73244 9.02819 6.7073 7.8768L5.94779 8.73953ZM4.82789 0.939326C4.09565 -0.163406 2.65702 -0.338545 1.78336 0.642561L2.54216 1.50529C2.92407 1.07636 3.60175 1.12095 3.96572 1.66989L4.82789 0.939326ZM1.07911 3.61102C1.06476 3.33047 1.1789 3.03695 1.4158 2.771L0.655565 1.90827C0.270063 2.34125 -0.0336014 2.95424 0.00301056 3.67913L1.07911 3.61102ZM11.6463 13.3897C11.4496 13.6118 11.2371 13.7367 11.0254 13.7586L11.1251 14.9692C11.6528 14.9132 12.0842 14.6132 12.4058 14.2524L11.6463 13.3897ZM5.56874 5.25295C6.27586 4.45915 6.32826 3.20479 5.73314 2.30639L4.87096 3.03533C5.16027 3.47236 5.1172 4.04562 4.80994 4.39185L5.56874 5.25295ZM12.403 10.5712C12.9895 10.9312 13.0807 11.7793 12.6664 12.2448L13.426 13.1067C14.3879 12.0258 14.0914 10.2234 12.9163 9.50252L12.403 10.5712ZM9.93274 9.8828C10.2084 9.57306 10.6521 9.49685 11.0311 9.72874L11.5451 8.66088C10.7669 8.18249 9.80209 8.31465 9.17323 9.02008L9.93274 9.8828Z" fill="#004E5A"/>
</svg>
