<svg width="26" height="21" viewBox="0 0 26 21" fill="none" xmlns="http://www.w3.org/2000/svg">
<path d="M21.2198 9.34219C21.2198 9.34219 21.5628 11.0859 21.6396 11.4516H20.1319C20.2809 11.0344 20.8542 9.4125 20.8542 9.4125C20.8451 9.42656 21.0031 8.98594 21.0934 8.71406L21.2198 9.34219ZM26 2.25V18.75C26 19.9922 25.0295 21 23.8333 21H2.16667C0.970486 21 0 19.9922 0 18.75V2.25C0 1.00781 0.970486 0 2.16667 0H23.8333C25.0295 0 26 1.00781 26 2.25ZM6.88368 14.025L9.73646 6.75H7.81806L6.0441 11.7188L5.85 10.7109L5.21806 7.36406C5.11424 6.9 4.79375 6.76875 4.39653 6.75H1.47604L1.44444 6.89531C2.15764 7.08281 2.7941 7.35469 3.34931 7.69688L4.96528 14.025H6.88368ZM11.1448 14.0344L12.2823 6.75H10.4677L9.33472 14.0344H11.1448ZM17.4597 11.6531C17.4688 10.8234 16.9813 10.1906 15.9385 9.67031C15.3021 9.3375 14.9139 9.1125 14.9139 8.77031C14.9229 8.46094 15.2434 8.14219 15.9566 8.14219C16.5479 8.12813 16.9812 8.27344 17.3062 8.41875L17.4688 8.49844L17.717 6.92344C17.3604 6.77812 16.7917 6.61406 16.092 6.61406C14.3 6.61406 13.0406 7.60781 13.0316 9.02344C13.0181 10.0688 13.9344 10.65 14.6205 11.0016C15.3201 11.3578 15.5594 11.5922 15.5594 11.9062C15.5503 12.3938 14.9906 12.6188 14.4715 12.6188C13.7493 12.6188 13.3611 12.5016 12.7698 12.2297L12.5306 12.1125L12.2778 13.7484C12.7021 13.95 13.4875 14.1281 14.3 14.1375C16.2049 14.1422 17.4462 13.1625 17.4597 11.6531ZM23.8333 14.0344L22.3708 6.75H20.967C20.5337 6.75 20.2042 6.88125 20.0191 7.35469L17.3243 14.0344H19.2292C19.2292 14.0344 19.5406 13.1344 19.6083 12.9422H21.9375C21.9917 13.2 22.1542 14.0344 22.1542 14.0344H23.8333Z" fill="#004E5A"/>
</svg>
