<svg width="53" height="59" viewBox="0 0 53 59" fill="none" xmlns="http://www.w3.org/2000/svg">
<path fill-rule="evenodd" clip-rule="evenodd" d="M53 43.7629C52.9963 43.9079 52.9821 44.0525 52.9576 44.1955C53.0215 44.524 53.0118 44.8625 52.9294 45.1868C52.8469 45.5112 52.6937 45.8132 52.4807 46.0715C52.2676 46.3297 52.0001 46.5376 51.6972 46.6804C51.3943 46.8232 51.0635 46.8973 50.7286 46.8974H8.32857C7.83142 46.8974 7.33914 46.9953 6.87984 47.1853C6.42054 47.3754 6.0032 47.654 5.65167 48.0052C5.30013 48.3564 5.02128 48.7733 4.83103 49.2322C4.64078 49.691 4.54286 50.1828 4.54286 50.6795C4.54286 51.1762 4.64078 51.668 4.83103 52.1268C5.02128 52.5857 5.30013 53.0026 5.65167 53.3538C6.0032 53.705 6.42054 53.9836 6.87984 54.1736C7.33914 54.3637 7.83142 54.4615 8.32857 54.4615H50.7286C51.331 54.4615 51.9087 54.7006 52.3347 55.1262C52.7607 55.5517 53 56.1289 53 56.7308C53 57.3326 52.7607 57.9098 52.3347 58.3354C51.9087 58.7609 51.331 59 50.7286 59H8.32857C6.1197 59 4.00129 58.1234 2.43938 56.563C0.877471 55.0026 0 52.8862 0 50.6795V8.32051C0 6.11378 0.877471 3.99742 2.43938 2.43702C4.00129 0.876623 6.1197 0 8.32857 0H48.9114C51.1707 0 53 1.82749 53 4.08462V43.7629ZM17.4143 12.1026C16.8119 12.1026 16.2341 12.3416 15.8081 12.7672C15.3822 13.1928 15.1429 13.77 15.1429 14.3718C15.1429 14.9736 15.3822 15.5508 15.8081 15.9764C16.2341 16.4019 16.8119 16.641 17.4143 16.641H35.5857C36.1881 16.641 36.7659 16.4019 37.1919 15.9764C37.6178 15.5508 37.8571 14.9736 37.8571 14.3718C37.8571 13.77 37.6178 13.1928 37.1919 12.7672C36.7659 12.3416 36.1881 12.1026 35.5857 12.1026H17.4143Z" fill="#004E5A"/>
</svg>
