<svg width="24" height="21" viewBox="0 0 24 21" fill="none" xmlns="http://www.w3.org/2000/svg">
<path d="M0.75 0.75H4.26261L6.89707 15.6786H20.9475M6.89691 12.1665H20.5873C20.6889 12.1666 20.7873 12.1315 20.8659 12.0671C20.9444 12.0028 20.9982 11.9132 21.0182 11.8136L22.5988 3.91024C22.6116 3.84651 22.61 3.78075 22.5943 3.71769C22.5786 3.65463 22.549 3.59586 22.5078 3.54561C22.4666 3.49536 22.4147 3.45489 22.3559 3.42711C22.2972 3.39934 22.233 3.38495 22.168 3.385H5.14061M8.65379 19.1918C8.65379 19.6768 8.26063 20.07 7.77564 20.07C7.29064 20.07 6.89748 19.6768 6.89748 19.1918C6.89748 18.7069 7.29064 18.3137 7.77564 18.3137C8.26063 18.3137 8.65379 18.7069 8.65379 19.1918ZM20.9481 19.1918C20.9481 19.6768 20.555 20.07 20.07 20.07C19.585 20.07 19.1918 19.6768 19.1918 19.1918C19.1918 18.7069 19.585 18.3137 20.07 18.3137C20.555 18.3137 20.9481 18.7069 20.9481 19.1918Z" stroke="#0AA5A5" stroke-width="1.5" stroke-linecap="round" stroke-linejoin="round"/>
</svg>
