<svg width="65" height="49" viewBox="0 0 65 49" fill="none" xmlns="http://www.w3.org/2000/svg">
<path d="M47.7106 0C51.0753 0 53.6581 2.58169 55.5717 5.35938L56.2197 6.34244L56.813 7.32244C57.0016 7.64298 57.1821 7.9574 57.3545 8.26569C59.7487 12.5746 61.8326 18.2004 63.2108 23.7589C64.5798 29.2744 65.3373 35.035 64.8536 39.5644C64.3668 44.1123 62.0395 49 56.8373 49C52.1705 49 48.4924 46.4888 45.505 44.0357L42.1281 41.1845C39.3201 38.8693 36.2474 36.75 32.4994 36.75C28.7514 36.75 25.6757 38.8693 22.8738 41.1845L19.4969 44.0326C16.5033 46.4888 12.8253 49 8.16153 49C2.95626 49 0.628955 44.1123 0.14524 39.5644C-0.335434 35.0319 0.419041 29.2744 1.78805 23.7589C3.16618 18.2004 5.25011 12.5746 7.64435 8.26569L8.18587 7.31937L8.7791 6.34244L9.4271 5.35938C11.3407 2.58169 13.9235 0 17.2882 0C18.8398 0 20.3822 0.37975 21.8972 0.826875L23.7013 1.38425C23.9994 1.47613 24.2955 1.56392 24.5896 1.64763C27.2211 2.40713 29.9135 3.0625 32.4994 3.0625C35.0853 3.0625 37.7777 2.40713 40.4092 1.64763L43.1016 0.829937C44.6166 0.37975 46.159 0 47.7106 0ZM21.8516 12.25C19.8345 12.25 17.8999 13.0566 16.4736 14.4925C15.0473 15.9283 14.246 17.8757 14.246 19.9062C14.246 21.9368 15.0473 23.8842 16.4736 25.32C17.8999 26.7559 19.8345 27.5625 21.8516 27.5625C23.8687 27.5625 25.8032 26.7559 27.2295 25.32C28.6559 23.8842 29.4572 21.9368 29.4572 19.9062C29.4572 17.8757 28.6559 15.9283 27.2295 14.4925C25.8032 13.0566 23.8687 12.25 21.8516 12.25ZM43.1472 12.25C42.3404 12.25 41.5666 12.5727 40.996 13.147C40.4255 13.7213 40.105 14.5003 40.105 15.3125V16.8438H38.5839C37.777 16.8438 37.0032 17.1664 36.4327 17.7407C35.8622 18.3151 35.5416 19.094 35.5416 19.9062C35.5416 20.7185 35.8622 21.4974 36.4327 22.0718C37.0032 22.6461 37.777 22.9688 38.5839 22.9688H40.105V24.5C40.105 25.3122 40.4255 26.0912 40.996 26.6655C41.5666 27.2398 42.3404 27.5625 43.1472 27.5625C43.9541 27.5625 44.7279 27.2398 45.2984 26.6655C45.8689 26.0912 46.1895 25.3122 46.1895 24.5V22.9688H47.7106C48.5174 22.9688 49.2912 22.6461 49.8618 22.0718C50.4323 21.4974 50.7528 20.7185 50.7528 19.9062C50.7528 19.094 50.4323 18.3151 49.8618 17.7407C49.2912 17.1664 48.5174 16.8438 47.7106 16.8438H46.1895V15.3125C46.1895 14.5003 45.8689 13.7213 45.2984 13.147C44.7279 12.5727 43.9541 12.25 43.1472 12.25ZM21.8516 18.375C22.255 18.375 22.6419 18.5363 22.9272 18.8235C23.2124 19.1107 23.3727 19.5001 23.3727 19.9062C23.3727 20.3124 23.2124 20.7018 22.9272 20.989C22.6419 21.2762 22.255 21.4375 21.8516 21.4375C21.4482 21.4375 21.0613 21.2762 20.776 20.989C20.4907 20.7018 20.3305 20.3124 20.3305 19.9062C20.3305 19.5001 20.4907 19.1107 20.776 18.8235C21.0613 18.5363 21.4482 18.375 21.8516 18.375Z" fill="#004E5A"/>
</svg>
