<svg width="73" height="67" viewBox="0 0 73 67" fill="none" xmlns="http://www.w3.org/2000/svg">
<path d="M23.8959 48.8236C24.8337 49.4348 25.9548 49.7645 27.105 49.7672C28.2552 49.77 29.378 49.4457 30.3194 48.8389C31.1619 48.2875 31.8251 47.5332 32.2297 46.6583L34.8074 39.4425C35.4379 37.7033 36.5012 36.1229 37.9131 34.8268C39.325 33.5307 41.0465 32.5546 42.9411 31.9759L50.5137 29.711C51.6003 29.3592 52.5413 28.7066 53.207 27.8432C53.8726 26.9797 54.2301 25.948 54.2301 24.8903C54.2301 23.8325 53.8726 22.8008 53.207 21.9373C52.5413 21.0739 51.6003 20.4213 50.5137 20.0695L42.7972 17.7855C40.9088 17.2052 39.1925 16.2311 37.7831 14.9396C36.3737 13.6481 35.3095 12.0743 34.674 10.3419L32.2151 3.39409C31.8327 2.39613 31.1213 1.53225 30.1796 0.922448C29.2345 0.321793 28.1122 0 26.9627 0C25.8131 0 24.6909 0.321793 23.7457 0.922448C22.7874 1.54542 22.0672 2.42964 21.6873 3.44961L19.1992 10.4701C18.5672 12.1585 17.5264 13.6934 16.1552 14.9594C14.784 16.2255 13.1181 17.1898 11.2825 17.7797L3.71827 20.035C2.62582 20.3883 1.68056 21.0455 1.01412 21.9152C0.347671 22.7848 -0.00678624 23.8235 9.84231e-05 24.8868C0.00698309 25.95 0.374867 26.9848 1.05253 27.8471C1.73018 28.7094 2.68389 29.3563 3.78083 29.6976L11.2617 31.928C13.1569 32.5121 14.8784 33.4923 16.2906 34.7914C17.7028 36.0904 18.767 37.6728 19.3995 39.4138L21.8604 46.35C22.2421 47.3475 22.9532 48.2129 23.8938 48.8236M56.0487 66.3069C56.734 66.7528 57.5529 66.9929 58.3928 66.9943L58.4033 67C59.2533 66.9983 60.0815 66.7522 60.7713 66.2962C61.4611 65.8401 61.9779 65.1971 62.249 64.4575L63.4357 61.1071C63.6789 60.4385 64.0879 59.8308 64.6304 59.3318C65.1728 58.8328 65.834 58.4562 66.5619 58.2315L70.295 57.1173C70.8863 56.9253 71.421 56.6101 71.8573 56.1964C72.2936 55.7828 72.6195 55.282 72.8094 54.7333C72.9993 54.1846 73.0482 53.6029 72.9521 53.034C72.8559 52.465 72.6175 51.9243 72.2554 51.4541C71.7403 50.792 71.0047 50.3015 70.1595 50.0565L66.4952 48.9672C65.7673 48.7432 65.106 48.3672 64.5632 47.8689C64.0204 47.3707 63.6109 46.7636 63.3669 46.0954L62.1531 42.6703C61.8731 41.9378 61.3505 41.3039 60.6586 40.8575C59.9667 40.4111 59.14 40.1745 58.2943 40.1808C57.4487 40.1871 56.6263 40.4361 55.9424 40.8928C55.2585 41.3495 54.7473 41.9911 54.4804 42.7278L53.2874 46.0916C53.0505 46.7499 52.6531 47.3499 52.1255 47.8459C51.5978 48.3419 50.9538 48.7208 50.2425 48.9538L46.5094 50.068C45.7118 50.3248 45.0216 50.8041 44.5355 51.4388C44.0493 52.0735 43.7915 52.8318 43.7982 53.6077C43.8049 54.3836 44.0757 55.1381 44.5727 55.7657C45.0696 56.3933 45.768 56.8625 46.5699 57.1077L50.2238 58.199C50.9537 58.4228 51.6167 58.8 52.1598 59.3006C52.7029 59.8012 53.1112 60.4112 53.3521 61.0822L54.5659 64.5054C54.8453 65.2329 55.3646 65.8628 56.0487 66.3069Z" fill="#004E5A"/>
</svg>
