<svg width="60" height="57" viewBox="0 0 60 57" fill="none" xmlns="http://www.w3.org/2000/svg">
<path d="M15 27C13.2272 27 11.4717 26.6508 9.83377 25.9724C8.19588 25.2939 6.70765 24.2995 5.45406 23.0459C4.20047 21.7923 3.20606 20.3041 2.52763 18.6662C1.84919 17.0283 1.5 15.2728 1.5 13.5C1.5 11.7272 1.84919 9.97167 2.52763 8.33377C3.20606 6.69588 4.20047 5.20765 5.45406 3.95406C6.70765 2.70047 8.19588 1.70606 9.83377 1.02763C11.4717 0.349188 13.2272 -2.64175e-08 15 0C18.5804 5.33525e-08 22.0142 1.42232 24.5459 3.95406C27.0777 6.4858 28.5 9.91958 28.5 13.5C28.5 17.0804 27.0777 20.5142 24.5459 23.0459C22.0142 25.5777 18.5804 27 15 27ZM46.5 39C43.3174 39 40.2652 37.7357 38.0147 35.4853C35.7643 33.2348 34.5 30.1826 34.5 27C34.5 23.8174 35.7643 20.7652 38.0147 18.5147C40.2652 16.2643 43.3174 15 46.5 15C49.6826 15 52.7348 16.2643 54.9853 18.5147C57.2357 20.7652 58.5 23.8174 58.5 27C58.5 30.1826 57.2357 33.2348 54.9853 35.4853C52.7348 37.7357 49.6826 39 46.5 39ZM46.5 42C50.0804 42 53.5142 43.4223 56.0459 45.9541C58.5777 48.4858 60 51.9196 60 55.5V57H33V55.5C33 51.9196 34.4223 48.4858 36.9541 45.9541C39.4858 43.4223 42.9196 42 46.5 42ZM15 30C16.9698 30 18.9204 30.388 20.7402 31.1418C22.5601 31.8956 24.2137 33.0005 25.6066 34.3934C26.9995 35.7863 28.1044 37.4399 28.8582 39.2598C29.612 41.0796 30 43.0302 30 45V57H0V45C0 41.0218 1.58035 37.2064 4.3934 34.3934C7.20644 31.5804 11.0218 30 15 30Z" fill="#004E5A"/>
</svg>
