<svg width="719" height="163" viewBox="0 0 719 163" fill="none" xmlns="http://www.w3.org/2000/svg">
<path d="M64.5197 146.042C102.229 146.042 132.908 115.528 132.908 78.0212C132.908 40.5144 102.229 10 64.5197 10C54.9061 10 47.1162 17.7481 47.1162 27.31V81.0053C47.1162 90.5673 54.9061 98.3154 64.5197 98.3154C74.1333 98.3154 81.9232 90.5673 81.9232 81.0053V49.4669C91.6153 55.3328 98.1012 65.9383 98.1012 78.0212C98.1012 96.4381 83.0361 111.422 64.5197 111.422C50.8862 111.422 38.7037 103.328 33.4826 90.8062C29.8009 81.9756 19.6186 77.7871 10.7404 81.449C1.86215 85.111 -2.34901 95.2386 1.33269 104.069C11.966 129.566 36.7672 146.037 64.5197 146.037V146.042Z" fill="url(#paint0_linear_373_1033)"/>
<path d="M64.5195 11.5C55.727 11.5001 48.6165 18.5839 48.6162 27.3096V81.0049C48.6162 89.7307 55.7268 96.8153 64.5195 96.8154C73.3123 96.8154 80.4229 89.7308 80.4229 81.0049V46.8057L82.7002 48.1836C92.8186 54.3076 99.6016 65.388 99.6016 78.0215C99.6014 97.2743 83.8566 112.922 64.5195 112.922C50.2844 112.922 37.5542 104.467 32.0986 91.3838C28.737 83.321 19.4321 79.4869 11.3125 82.8359C3.19737 86.1831 -0.643262 95.4331 2.7168 103.492C13.1157 128.427 37.3688 144.537 64.5195 144.537H65.3828C101.875 144.076 131.408 114.406 131.408 78.0215C131.408 41.3508 101.408 11.5 64.5195 11.5Z" stroke="white" stroke-opacity="0.3" style="mix-blend-mode:lighten" stroke-width="3"/>
<g filter="url(#filter0_i_373_1033)">
<rect width="31.861" height="41.4193" rx="15.9305" transform="matrix(-1 0 0 1 80.0801 51.5215)" fill="white"/>
</g>
<rect width="54.1637" height="67.9702" rx="27.0819" transform="matrix(-1 0 0 1 91.2305 38.2461)" fill="#00FFCC" fill-opacity="0.1"/>
<path d="M222.936 86.08C219.896 86.08 217.376 85.52 215.376 84.4C213.456 83.2 212.496 81.08 212.496 78.04C212.496 75 213.456 72.92 215.376 71.8C217.376 70.6 219.896 70 222.936 70H239.976C243.896 70 246.736 70.92 248.496 72.76C250.336 74.52 251.256 77.36 251.256 81.28V93.4C251.256 96.84 250.776 100.16 249.816 103.36C248.856 106.48 247.416 109 245.496 110.92C241.256 115.16 236.376 118.08 230.856 119.68C225.416 121.36 219.176 122.2 212.136 122.2C205.416 122.2 199.336 121.04 193.896 118.72C188.456 116.48 183.816 113.32 179.976 109.24C176.136 105.08 173.176 100.16 171.096 94.48C169.096 88.8 168.096 82.6 168.096 75.88C168.096 69.16 169.096 62.96 171.096 57.28C173.176 51.6 176.136 46.72 179.976 42.64C183.816 38.56 188.456 35.4 193.896 33.16C199.336 30.84 205.416 29.68 212.136 29.68C216.456 29.68 220.336 30.08 223.776 30.88C227.296 31.68 230.376 32.76 233.016 34.12C235.736 35.48 238.096 37.08 240.096 38.92C242.176 40.76 243.976 42.72 245.496 44.8C247.016 46.88 247.776 49.2 247.776 51.76C247.776 54.24 246.736 56.28 244.656 57.88C243.456 58.76 242.216 59.36 240.936 59.68C239.656 59.92 238.376 59.92 237.096 59.68C235.896 59.36 234.696 58.84 233.496 58.12C232.376 57.4 231.416 56.48 230.616 55.36C228.536 52.56 226.016 50.44 223.056 49C220.096 47.48 216.456 46.72 212.136 46.72C208.936 46.72 205.896 47.36 203.016 48.64C200.136 49.84 197.576 51.68 195.336 54.16C193.176 56.56 191.416 59.6 190.056 63.28C188.776 66.88 188.136 71.08 188.136 75.88C188.136 80.68 188.856 84.92 190.296 88.6C191.736 92.2 193.616 95.24 195.936 97.72C198.336 100.2 201.016 102.08 203.976 103.36C207.016 104.56 210.136 105.16 213.336 105.16C216.776 105.16 220.176 104.8 223.536 104.08C226.896 103.36 229.816 101.96 232.296 99.88C232.936 99.4 233.376 98.8 233.616 98.08C233.856 97.28 233.976 96.56 233.976 95.92V86.08H222.936ZM273.633 76C273.633 80.16 274.193 84.04 275.313 87.64C276.433 91.16 278.033 94.24 280.113 96.88C282.273 99.44 284.873 101.48 287.913 103C291.033 104.44 294.593 105.16 298.593 105.16C302.593 105.16 306.113 104.44 309.153 103C312.273 101.48 314.873 99.44 316.953 96.88C319.113 94.24 320.753 91.16 321.873 87.64C322.993 84.04 323.553 80.16 323.553 76C323.553 71.84 322.993 68 321.873 64.48C320.753 60.88 319.113 57.76 316.953 55.12C314.873 52.48 312.273 50.44 309.153 49C306.113 47.48 302.593 46.72 298.593 46.72C294.593 46.72 291.033 47.48 287.913 49C284.873 50.44 282.273 52.48 280.113 55.12C278.033 57.76 276.433 60.88 275.313 64.48C274.193 68 273.633 71.84 273.633 76ZM253.713 76C253.713 69.36 254.713 63.2 256.713 57.52C258.713 51.84 261.633 46.96 265.473 42.88C269.313 38.72 273.993 35.48 279.513 33.16C285.113 30.84 291.473 29.68 298.593 29.68C305.713 29.68 312.033 30.84 317.553 33.16C323.153 35.48 327.873 38.72 331.713 42.88C335.553 46.96 338.473 51.84 340.473 57.52C342.473 63.2 343.473 69.36 343.473 76C343.473 82.64 342.473 88.8 340.473 94.48C338.473 100.08 335.553 104.96 331.713 109.12C327.873 113.2 323.153 116.4 317.553 118.72C312.033 121.04 305.713 122.2 298.593 122.2C291.473 122.2 285.113 121.04 279.513 118.72C273.993 116.4 269.313 113.2 265.473 109.12C261.633 104.96 258.713 100.08 256.713 94.48C254.713 88.8 253.713 82.64 253.713 76ZM419.992 59.08C419.992 64.6 418.832 69.4 416.512 73.48C414.272 77.56 411.072 80.76 406.912 83.08L419.632 108.16C420.752 110.32 421.112 112.6 420.712 115C420.392 117.4 418.952 119.28 416.392 120.64C415.112 121.28 413.792 121.64 412.432 121.72C411.152 121.8 409.912 121.64 408.712 121.24C407.592 120.92 406.552 120.32 405.592 119.44C404.632 118.64 403.872 117.68 403.312 116.56L387.232 87.04H367.912V111.04C367.912 114.08 366.952 116.52 365.032 118.36C363.192 120.2 360.752 121.12 357.712 121.12C354.672 121.12 352.232 120.2 350.392 118.36C348.552 116.52 347.632 114.08 347.632 111.04V43.36C347.632 35.44 351.552 31.48 359.392 31.48H389.632C394.192 31.48 398.352 32.12 402.112 33.4C405.872 34.68 409.072 36.52 411.712 38.92C414.352 41.24 416.392 44.12 417.832 47.56C419.272 50.92 419.992 54.76 419.992 59.08ZM367.912 71.08H385.192C389.752 71.08 393.392 70.16 396.112 68.32C398.832 66.48 400.192 63.4 400.192 59.08C400.192 54.76 398.832 51.76 396.112 50.08C393.472 48.32 389.832 47.44 385.192 47.44H367.912V71.08ZM436.923 120.4C429.083 120.4 425.163 116.44 425.163 108.52V43.36C425.163 35.44 429.083 31.48 436.923 31.48H478.923C481.963 31.48 484.403 32.08 486.243 33.28C488.163 34.4 489.123 36.48 489.123 39.52C489.123 42.56 488.163 44.68 486.243 45.88C484.403 47 481.963 47.56 478.923 47.56H445.443V66.76H476.763C479.563 66.76 481.843 67.4 483.603 68.68C485.443 69.96 486.363 72 486.363 74.8C486.363 77.6 485.443 79.64 483.603 80.92C481.843 82.2 479.563 82.84 476.763 82.84H445.443V104.32H480.363C483.403 104.32 485.843 104.88 487.683 106C489.603 107.12 490.563 109.2 490.563 112.24C490.563 115.28 489.603 117.4 487.683 118.6C485.843 119.8 483.403 120.4 480.363 120.4H436.923ZM583.272 44.8C583.272 40.24 584.192 36.76 586.032 34.36C587.952 31.96 591.192 30.76 595.752 30.76C598.792 30.76 601.232 31.28 603.072 32.32C604.912 33.28 606.512 34.84 607.872 37L638.952 91.6H639.312V41.08C639.312 38.04 640.192 35.56 641.952 33.64C643.712 31.72 646.112 30.76 649.152 30.76C652.192 30.76 654.592 31.72 656.352 33.64C658.112 35.56 658.992 38.04 658.992 41.08V107.56C658.992 111.88 658.112 115.24 656.352 117.64C654.672 119.96 651.672 121.12 647.352 121.12C644.312 121.12 641.712 120.6 639.552 119.56C637.392 118.6 635.592 116.96 634.152 114.64L603.312 62.68H602.952V110.8C602.952 113.84 602.072 116.32 600.312 118.24C598.552 120.16 596.152 121.12 593.112 121.12C590.072 121.12 587.672 120.16 585.912 118.24C584.152 116.32 583.272 113.84 583.272 110.8V44.8Z" fill="#0AA5A5"/>
<path d="M509.274 76C509.274 80.16 509.834 84.04 510.954 87.64C512.074 91.16 513.674 94.24 515.754 96.88C517.914 99.44 520.514 101.48 523.554 103C526.674 104.44 530.234 105.16 534.234 105.16C538.234 105.16 541.754 104.44 544.794 103C547.914 101.48 550.514 99.44 552.594 96.88C554.754 94.24 556.394 91.16 557.514 87.64C558.634 84.04 559.194 80.16 559.194 76C559.194 71.84 558.634 68 557.514 64.48C556.394 60.88 554.754 57.76 552.594 55.12C550.514 52.48 547.914 50.44 544.794 49C541.754 47.48 538.234 46.72 534.234 46.72C530.234 46.72 526.674 47.48 523.554 49C520.514 50.44 517.914 52.48 515.754 55.12C513.674 57.76 512.074 60.88 510.954 64.48C509.834 68 509.274 71.84 509.274 76ZM489.354 76C489.354 69.36 490.354 63.2 492.354 57.52C494.354 51.84 497.274 46.96 501.114 42.88C504.954 38.72 509.634 35.48 515.154 33.16C520.754 30.84 527.114 29.68 534.234 29.68C541.354 29.68 547.674 30.84 553.194 33.16C558.794 35.48 563.514 38.72 567.354 42.88C571.194 46.96 574.114 51.84 576.114 57.52C578.114 63.2 579.114 69.36 579.114 76C579.114 82.64 578.114 88.8 576.114 94.48C574.114 100.08 571.194 104.96 567.354 109.12C563.514 113.2 558.794 116.4 553.194 118.72C547.674 121.04 541.354 122.2 534.234 122.2C527.114 122.2 520.754 121.04 515.154 118.72C509.634 116.4 504.954 113.2 501.114 109.12C497.274 104.96 494.354 100.08 492.354 94.48C490.354 88.8 489.354 82.64 489.354 76Z" fill="#7AE0D4"/>
<defs>
<filter id="filter0_i_373_1033" x="48.2188" y="51.5215" width="31.8613" height="41.4199" filterUnits="userSpaceOnUse" color-interpolation-filters="sRGB">
<feFlood flood-opacity="0" result="BackgroundImageFix"/>
<feBlend mode="normal" in="SourceGraphic" in2="BackgroundImageFix" result="shape"/>
<feColorMatrix in="SourceAlpha" type="matrix" values="0 0 0 0 0 0 0 0 0 0 0 0 0 0 0 0 0 0 127 0" result="hardAlpha"/>
<feOffset/>
<feGaussianBlur stdDeviation="3.45"/>
<feComposite in2="hardAlpha" operator="arithmetic" k2="-1" k3="1"/>
<feColorMatrix type="matrix" values="0 0 0 0 0 0 0 0 0 0 0 0 0 0 0 0 0 0 0.25 0"/>
<feBlend mode="normal" in2="shape" result="effect1_innerShadow_373_1033"/>
</filter>
<linearGradient id="paint0_linear_373_1033" x1="112.808" y1="98.2568" x2="15.0345" y2="114.764" gradientUnits="userSpaceOnUse">
<stop stop-color="#7AE0D4"/>
<stop offset="1" stop-color="#0AA5A5"/>
</linearGradient>
</defs>
</svg>
