<svg width="283" height="282" viewBox="0 0 283 282" fill="none" xmlns="http://www.w3.org/2000/svg">
<g filter="url(#filter0_d_77_91)">
<mask id="path-1-inside-1_77_91" fill="white">
<path d="M5 60C5 29.6243 29.6243 5 60 5H218.088C248.464 5 273.088 29.6243 273.088 60V217.392C273.088 247.768 248.464 272.392 218.088 272.392H60C29.6244 272.392 5 247.768 5 217.392V60Z"/>
</mask>
<path d="M5 60C5 29.6243 29.6243 5 60 5H218.088C248.464 5 273.088 29.6243 273.088 60V217.392C273.088 247.768 248.464 272.392 218.088 272.392H60C29.6244 272.392 5 247.768 5 217.392V60Z" fill="white"/>
<path d="M2 60C2 27.9675 27.9675 2 60 2H215.088C247.121 2 273.088 27.9675 273.088 60C273.088 31.2812 248.464 8 218.088 8H60C31.2812 8 8 31.2812 8 60H2ZM8 60M273.088 272.392H5H273.088M60 272.392C27.9675 272.392 2 246.425 2 214.392V60C2 27.9675 27.9675 2 60 2V8C31.2812 8 8 31.2812 8 60V217.392C8 247.768 31.2812 272.392 60 272.392ZM60 272.392M273.088 5V272.392V5" fill="white" mask="url(#path-1-inside-1_77_91)"/>
<path d="M137.005 210.392C176.751 210.392 209.088 178.229 209.088 138.696C209.088 99.163 176.751 67 137.005 67C126.872 67 118.661 75.1667 118.661 85.2452V141.841C118.661 151.92 126.872 160.087 137.005 160.087C147.138 160.087 155.348 151.92 155.348 141.841V108.599C165.564 114.782 172.4 125.96 172.4 138.696C172.4 158.108 156.521 173.902 137.005 173.902C122.635 173.902 109.794 165.37 104.291 152.172C100.41 142.864 89.6778 138.449 80.3199 142.309C70.962 146.169 66.5233 156.844 70.4039 166.151C81.6117 193.026 107.753 210.387 137.005 210.387V210.392Z" fill="url(#paint0_linear_77_91)"/>
<path d="M137.005 68.5C127.693 68.5 120.161 76.0026 120.161 85.2451V141.842C120.161 151.084 127.693 158.587 137.005 158.587C146.317 158.587 153.848 151.084 153.849 141.842V105.938L156.125 107.315C166.767 113.756 173.9 125.41 173.9 138.696C173.9 158.944 157.342 175.401 137.005 175.401C122.033 175.401 108.644 166.509 102.906 152.749C99.3457 144.209 89.4909 140.148 80.8916 143.695C72.2969 147.24 68.2291 157.038 71.7881 165.574C82.7614 191.886 108.355 208.887 137.005 208.887H137.916C176.423 208.4 207.588 177.091 207.588 138.696C207.588 99.9993 175.931 68.5001 137.005 68.5Z" stroke="white" stroke-opacity="0.3" style="mix-blend-mode:lighten" stroke-width="3"/>
<g filter="url(#filter1_i_77_91)">
<rect width="33.5823" height="43.657" rx="16.7912" transform="matrix(-1 0 0 1 153.406 110.766)" fill="white"/>
</g>
<rect width="57.09" height="71.6423" rx="28.545" transform="matrix(-1 0 0 1 165.16 96.7734)" fill="#00FFCC" fill-opacity="0.1"/>
</g>
<defs>
<filter id="filter0_d_77_91" x="0" y="0" width="282.088" height="281.393" filterUnits="userSpaceOnUse" color-interpolation-filters="sRGB">
<feFlood flood-opacity="0" result="BackgroundImageFix"/>
<feColorMatrix in="SourceAlpha" type="matrix" values="0 0 0 0 0 0 0 0 0 0 0 0 0 0 0 0 0 0 127 0" result="hardAlpha"/>
<feOffset dx="2" dy="2"/>
<feGaussianBlur stdDeviation="3.5"/>
<feComposite in2="hardAlpha" operator="out"/>
<feColorMatrix type="matrix" values="0 0 0 0 0 0 0 0 0 0 0 0 0 0 0 0 0 0 0.25 0"/>
<feBlend mode="normal" in2="BackgroundImageFix" result="effect1_dropShadow_77_91"/>
<feBlend mode="normal" in="SourceGraphic" in2="effect1_dropShadow_77_91" result="shape"/>
</filter>
<filter id="filter1_i_77_91" x="119.824" y="110.766" width="33.582" height="43.6562" filterUnits="userSpaceOnUse" color-interpolation-filters="sRGB">
<feFlood flood-opacity="0" result="BackgroundImageFix"/>
<feBlend mode="normal" in="SourceGraphic" in2="BackgroundImageFix" result="shape"/>
<feColorMatrix in="SourceAlpha" type="matrix" values="0 0 0 0 0 0 0 0 0 0 0 0 0 0 0 0 0 0 127 0" result="hardAlpha"/>
<feOffset/>
<feGaussianBlur stdDeviation="3.45"/>
<feComposite in2="hardAlpha" operator="arithmetic" k2="-1" k3="1"/>
<feColorMatrix type="matrix" values="0 0 0 0 0 0 0 0 0 0 0 0 0 0 0 0 0 0 0.25 0"/>
<feBlend mode="normal" in2="shape" result="effect1_innerShadow_77_91"/>
</filter>
<linearGradient id="paint0_linear_77_91" x1="187.902" y1="160.025" x2="84.846" y2="177.424" gradientUnits="userSpaceOnUse">
<stop stop-color="#7AE0D4"/>
<stop offset="1" stop-color="#0AA5A5"/>
</linearGradient>
</defs>
</svg>
