<svg width="842" height="277" viewBox="0 0 842 277" fill="none" xmlns="http://www.w3.org/2000/svg">
<g filter="url(#filter0_d_46_660)">
<mask id="path-1-inside-1_46_660" fill="white">
<path d="M1 55C1 24.6243 25.6243 0 56 0H780C810.376 0 835 24.6243 835 55V213C835 243.376 810.376 268 780 268H56C25.6243 268 1 243.376 1 213V55Z"/>
</mask>
<path d="M1 55C1 24.6243 25.6243 0 56 0H780C810.376 0 835 24.6243 835 55V213C835 243.376 810.376 268 780 268H56C25.6243 268 1 243.376 1 213V55Z" fill="#F4FFFE"/>
<path d="M-2 55C-2 22.9675 23.9675 -3 56 -3H777C809.033 -3 835 22.9675 835 55C835 26.2812 810.376 3 780 3H56C27.2812 3 4 26.2812 4 55H-2ZM4 55M835 268H1H835M56 268C23.9675 268 -2 242.033 -2 210V55C-2 22.9675 23.9675 -3 56 -3V3C27.2812 3 4 26.2812 4 55V213C4 243.376 27.2812 268 56 268ZM56 268M835 0V268V0" fill="white" mask="url(#path-1-inside-1_46_660)"/>
<g opacity="0.47" filter="url(#filter1_f_46_660)">
<ellipse cx="122.065" cy="199.983" rx="55.4827" ry="5.32885" fill="#004E5A" style="mix-blend-mode:darken"/>
</g>
<path d="M123.519 199.042C161.228 199.042 191.907 168.528 191.907 131.021C191.907 93.5145 161.228 63.0001 123.519 63.0001C113.905 63.0001 106.115 70.7481 106.115 80.3101V134.005C106.115 143.567 113.905 151.315 123.519 151.315C133.132 151.315 140.922 143.567 140.922 134.005V102.467C150.614 108.333 157.1 118.938 157.1 131.021C157.1 149.438 142.035 164.422 123.519 164.422C109.885 164.422 97.7027 156.328 92.4817 143.806C88.8 134.976 78.6177 130.787 69.7394 134.449C60.8612 138.111 56.65 148.239 60.3317 157.069C70.965 182.566 95.7663 199.037 123.519 199.037V199.042Z" fill="url(#paint0_linear_46_660)"/>
<path d="M123.519 64.5001C114.726 64.5002 107.615 71.584 107.615 80.3096V134.005C107.615 142.731 114.726 149.815 123.519 149.815C132.311 149.815 139.422 142.731 139.422 134.005V99.8057L141.699 101.184C151.818 107.308 158.601 118.388 158.601 131.022C158.6 150.274 142.856 165.922 123.519 165.922C109.283 165.922 96.5532 157.467 91.0977 144.384C87.736 136.321 78.4312 132.487 70.3115 135.836C62.1964 139.183 58.3558 148.433 61.7158 156.492C72.1147 181.427 96.3678 197.537 123.519 197.537H124.382C160.874 197.076 190.407 167.406 190.407 131.022C190.407 94.3509 160.407 64.5001 123.519 64.5001Z" stroke="white" stroke-opacity="0.3" style="mix-blend-mode:lighten" stroke-width="3"/>
<rect width="31.861" height="41.4193" rx="15.9305" transform="matrix(-1 0 0 1 139.08 104.522)" fill="white"/>
<rect width="54.1637" height="67.9702" rx="27.0819" transform="matrix(-1 0 0 1 150.231 91.2471)" fill="#00FFCC" fill-opacity="0.1"/>
<g filter="url(#filter3_d_46_660)">
<path d="M281.934 139.08C278.894 139.08 276.374 138.52 274.374 137.4C272.454 136.2 271.494 134.08 271.494 131.04C271.494 128 272.454 125.92 274.374 124.8C276.374 123.6 278.894 123 281.934 123H298.974C302.894 123 305.734 123.92 307.494 125.76C309.334 127.52 310.254 130.36 310.254 134.28V146.4C310.254 149.84 309.774 153.16 308.814 156.36C307.854 159.48 306.414 162 304.494 163.92C300.254 168.16 295.374 171.08 289.854 172.68C284.414 174.36 278.174 175.2 271.134 175.2C264.414 175.2 258.334 174.04 252.894 171.72C247.454 169.48 242.814 166.32 238.974 162.24C235.134 158.08 232.174 153.16 230.094 147.48C228.094 141.8 227.094 135.6 227.094 128.88C227.094 122.16 228.094 115.96 230.094 110.28C232.174 104.6 235.134 99.72 238.974 95.64C242.814 91.56 247.454 88.4 252.894 86.16C258.334 83.84 264.414 82.68 271.134 82.68C275.454 82.68 279.334 83.08 282.774 83.88C286.294 84.68 289.374 85.76 292.014 87.12C294.734 88.48 297.094 90.08 299.094 91.92C301.174 93.76 302.974 95.72 304.494 97.8C306.014 99.88 306.774 102.2 306.774 104.76C306.774 107.24 305.734 109.28 303.654 110.88C302.454 111.76 301.214 112.36 299.934 112.68C298.654 112.92 297.374 112.92 296.094 112.68C294.894 112.36 293.694 111.84 292.494 111.12C291.374 110.4 290.414 109.48 289.614 108.36C287.534 105.56 285.014 103.44 282.054 102C279.094 100.48 275.454 99.72 271.134 99.72C267.934 99.72 264.894 100.36 262.014 101.64C259.134 102.84 256.574 104.68 254.334 107.16C252.174 109.56 250.414 112.6 249.054 116.28C247.774 119.88 247.134 124.08 247.134 128.88C247.134 133.68 247.854 137.92 249.294 141.6C250.734 145.2 252.614 148.24 254.934 150.72C257.334 153.2 260.014 155.08 262.974 156.36C266.014 157.56 269.134 158.16 272.334 158.16C275.774 158.16 279.174 157.8 282.534 157.08C285.894 156.36 288.814 154.96 291.294 152.88C291.934 152.4 292.374 151.8 292.614 151.08C292.854 150.28 292.974 149.56 292.974 148.92V139.08H281.934ZM332.631 129C332.631 133.16 333.191 137.04 334.311 140.64C335.431 144.16 337.031 147.24 339.111 149.88C341.271 152.44 343.871 154.48 346.911 156C350.031 157.44 353.591 158.16 357.591 158.16C361.591 158.16 365.111 157.44 368.151 156C371.271 154.48 373.871 152.44 375.951 149.88C378.111 147.24 379.751 144.16 380.871 140.64C381.991 137.04 382.551 133.16 382.551 129C382.551 124.84 381.991 121 380.871 117.48C379.751 113.88 378.111 110.76 375.951 108.12C373.871 105.48 371.271 103.44 368.151 102C365.111 100.48 361.591 99.72 357.591 99.72C353.591 99.72 350.031 100.48 346.911 102C343.871 103.44 341.271 105.48 339.111 108.12C337.031 110.76 335.431 113.88 334.311 117.48C333.191 121 332.631 124.84 332.631 129ZM312.711 129C312.711 122.36 313.711 116.2 315.711 110.52C317.711 104.84 320.631 99.96 324.471 95.88C328.311 91.72 332.991 88.48 338.511 86.16C344.111 83.84 350.471 82.68 357.591 82.68C364.711 82.68 371.031 83.84 376.551 86.16C382.151 88.48 386.871 91.72 390.711 95.88C394.551 99.96 397.471 104.84 399.471 110.52C401.471 116.2 402.471 122.36 402.471 129C402.471 135.64 401.471 141.8 399.471 147.48C397.471 153.08 394.551 157.96 390.711 162.12C386.871 166.2 382.151 169.4 376.551 171.72C371.031 174.04 364.711 175.2 357.591 175.2C350.471 175.2 344.111 174.04 338.511 171.72C332.991 169.4 328.311 166.2 324.471 162.12C320.631 157.96 317.711 153.08 315.711 147.48C313.711 141.8 312.711 135.64 312.711 129ZM478.99 112.08C478.99 117.6 477.83 122.4 475.51 126.48C473.27 130.56 470.07 133.76 465.91 136.08L478.63 161.16C479.75 163.32 480.11 165.6 479.71 168C479.39 170.4 477.95 172.28 475.39 173.64C474.11 174.28 472.79 174.64 471.43 174.72C470.15 174.8 468.91 174.64 467.71 174.24C466.59 173.92 465.55 173.32 464.59 172.44C463.63 171.64 462.87 170.68 462.31 169.56L446.23 140.04H426.91V164.04C426.91 167.08 425.95 169.52 424.03 171.36C422.19 173.2 419.75 174.12 416.71 174.12C413.67 174.12 411.23 173.2 409.39 171.36C407.55 169.52 406.63 167.08 406.63 164.04V96.36C406.63 88.44 410.55 84.48 418.39 84.48H448.63C453.19 84.48 457.35 85.12 461.11 86.4C464.87 87.68 468.07 89.52 470.71 91.92C473.35 94.24 475.39 97.12 476.83 100.56C478.27 103.92 478.99 107.76 478.99 112.08ZM426.91 124.08H444.19C448.75 124.08 452.39 123.16 455.11 121.32C457.83 119.48 459.19 116.4 459.19 112.08C459.19 107.76 457.83 104.76 455.11 103.08C452.47 101.32 448.83 100.44 444.19 100.44H426.91V124.08ZM495.921 173.4C488.081 173.4 484.161 169.44 484.161 161.52V96.36C484.161 88.44 488.081 84.48 495.921 84.48H537.921C540.961 84.48 543.401 85.08 545.241 86.28C547.161 87.4 548.121 89.48 548.121 92.52C548.121 95.56 547.161 97.68 545.241 98.88C543.401 100 540.961 100.56 537.921 100.56H504.441V119.76H535.761C538.561 119.76 540.841 120.4 542.601 121.68C544.441 122.96 545.361 125 545.361 127.8C545.361 130.6 544.441 132.64 542.601 133.92C540.841 135.2 538.561 135.84 535.761 135.84H504.441V157.32H539.361C542.401 157.32 544.841 157.88 546.681 159C548.601 160.12 549.561 162.2 549.561 165.24C549.561 168.28 548.601 170.4 546.681 171.6C544.841 172.8 542.401 173.4 539.361 173.4H495.921ZM642.27 97.8C642.27 93.24 643.19 89.76 645.03 87.36C646.95 84.96 650.19 83.76 654.75 83.76C657.79 83.76 660.23 84.28 662.07 85.32C663.91 86.28 665.51 87.84 666.87 90L697.95 144.6H698.31V94.08C698.31 91.04 699.19 88.56 700.95 86.64C702.71 84.72 705.11 83.76 708.15 83.76C711.19 83.76 713.59 84.72 715.35 86.64C717.11 88.56 717.99 91.04 717.99 94.08V160.56C717.99 164.88 717.11 168.24 715.35 170.64C713.67 172.96 710.67 174.12 706.35 174.12C703.31 174.12 700.71 173.6 698.55 172.56C696.39 171.6 694.59 169.96 693.15 167.64L662.31 115.68H661.95V163.8C661.95 166.84 661.07 169.32 659.31 171.24C657.55 173.16 655.15 174.12 652.11 174.12C649.07 174.12 646.67 173.16 644.91 171.24C643.15 169.32 642.27 166.84 642.27 163.8V97.8Z" fill="#0AA5A5"/>
<path d="M568.272 129C568.272 133.16 568.832 137.04 569.952 140.64C571.072 144.16 572.672 147.24 574.752 149.88C576.912 152.44 579.512 154.48 582.552 156C585.672 157.44 589.232 158.16 593.232 158.16C597.232 158.16 600.752 157.44 603.792 156C606.912 154.48 609.512 152.44 611.592 149.88C613.752 147.24 615.392 144.16 616.512 140.64C617.632 137.04 618.192 133.16 618.192 129C618.192 124.84 617.632 121 616.512 117.48C615.392 113.88 613.752 110.76 611.592 108.12C609.512 105.48 606.912 103.44 603.792 102C600.752 100.48 597.232 99.72 593.232 99.72C589.232 99.72 585.672 100.48 582.552 102C579.512 103.44 576.912 105.48 574.752 108.12C572.672 110.76 571.072 113.88 569.952 117.48C568.832 121 568.272 124.84 568.272 129ZM548.352 129C548.352 122.36 549.352 116.2 551.352 110.52C553.352 104.84 556.272 99.96 560.112 95.88C563.952 91.72 568.632 88.48 574.152 86.16C579.752 83.84 586.112 82.68 593.232 82.68C600.352 82.68 606.672 83.84 612.192 86.16C617.792 88.48 622.512 91.72 626.352 95.88C630.192 99.96 633.112 104.84 635.112 110.52C637.112 116.2 638.112 122.36 638.112 129C638.112 135.64 637.112 141.8 635.112 147.48C633.112 153.08 630.192 157.96 626.352 162.12C622.512 166.2 617.792 169.4 612.192 171.72C606.672 174.04 600.352 175.2 593.232 175.2C586.112 175.2 579.752 174.04 574.152 171.72C568.632 169.4 563.952 166.2 560.112 162.12C556.272 157.96 553.352 153.08 551.352 147.48C549.352 141.8 548.352 135.64 548.352 129Z" fill="#7AE0D4"/>
</g>
</g>
<defs>
<filter id="filter0_d_46_660" x="0" y="0" width="842" height="277" filterUnits="userSpaceOnUse" color-interpolation-filters="sRGB">
<feFlood flood-opacity="0" result="BackgroundImageFix"/>
<feColorMatrix in="SourceAlpha" type="matrix" values="0 0 0 0 0 0 0 0 0 0 0 0 0 0 0 0 0 0 127 0" result="hardAlpha"/>
<feOffset dx="3" dy="5"/>
<feGaussianBlur stdDeviation="2"/>
<feComposite in2="hardAlpha" operator="out"/>
<feColorMatrix type="matrix" values="0 0 0 0 0 0 0 0 0 0 0 0 0 0 0 0 0 0 0.25 0"/>
<feBlend mode="normal" in2="BackgroundImageFix" result="effect1_dropShadow_46_660"/>
<feBlend mode="normal" in="SourceGraphic" in2="effect1_dropShadow_46_660" result="shape"/>
</filter>
<filter id="filter1_f_46_660" x="50.782" y="178.854" width="142.565" height="42.2577" filterUnits="userSpaceOnUse" color-interpolation-filters="sRGB">
<feFlood flood-opacity="0" result="BackgroundImageFix"/>
<feBlend mode="normal" in="SourceGraphic" in2="BackgroundImageFix" result="shape"/>
<feGaussianBlur stdDeviation="7.9" result="effect1_foregroundBlur_46_660"/>
</filter>
<filter id="filter3_d_46_660" x="218.194" y="78.78" width="508.696" height="110.32" filterUnits="userSpaceOnUse" color-interpolation-filters="sRGB">
<feFlood flood-opacity="0" result="BackgroundImageFix"/>
<feColorMatrix in="SourceAlpha" type="matrix" values="0 0 0 0 0 0 0 0 0 0 0 0 0 0 0 0 0 0 127 0" result="hardAlpha"/>
<feOffset dy="5"/>
<feGaussianBlur stdDeviation="4.45"/>
<feComposite in2="hardAlpha" operator="out"/>
<feColorMatrix type="matrix" values="0 0 0 0 0 0 0 0 0 0.305882 0 0 0 0 0.352941 0 0 0 0.25 0"/>
<feBlend mode="normal" in2="BackgroundImageFix" result="effect1_dropShadow_46_660"/>
<feBlend mode="normal" in="SourceGraphic" in2="effect1_dropShadow_46_660" result="shape"/>
</filter>
<linearGradient id="paint0_linear_46_660" x1="171.807" y1="151.257" x2="74.0335" y2="167.764" gradientUnits="userSpaceOnUse">
<stop stop-color="#7AE0D4"/>
<stop offset="1" stop-color="#0AA5A5"/>
</linearGradient>
</defs>
</svg>
