<svg width="54" height="52" viewBox="0 0 54 52" fill="none" xmlns="http://www.w3.org/2000/svg">
<rect width="54" height="52" rx="26" fill="#F4FFFE"/>
<path d="M27 21.4105C25.7341 21.4105 24.52 21.894 23.6249 22.7545C22.7298 23.6151 22.2269 24.7822 22.2269 25.9993C22.2269 27.2163 22.7298 28.3834 23.6249 29.244C24.52 30.1045 25.7341 30.588 27 30.588C28.266 30.588 29.48 30.1045 30.3752 29.244C31.2703 28.3834 31.7732 27.2163 31.7732 25.9993C31.7732 24.7822 31.2703 23.6151 30.3752 22.7545C29.48 21.894 28.266 21.4105 27 21.4105Z" fill="#004E5A"/>
<path fill-rule="evenodd" clip-rule="evenodd" d="M19.3189 13.4078C24.424 12.8641 29.576 12.8641 34.6812 13.4078C37.4702 13.7071 39.7187 15.8179 40.0462 18.509C40.6513 23.4856 40.6513 28.5129 40.0462 33.4895C39.7187 36.1806 37.4702 38.2914 34.6827 38.5922C29.577 39.1359 24.4245 39.1359 19.3189 38.5922C16.5299 38.2914 14.2814 36.1806 13.9538 33.4909C13.3487 28.5139 13.3487 23.486 13.9538 18.509C14.2814 15.8179 16.5299 13.7071 19.3189 13.4078ZM34.3434 17.5277C33.9539 17.5277 33.5803 17.6765 33.3049 17.9413C33.0295 18.2061 32.8747 18.5652 32.8747 18.9397C32.8747 19.3141 33.0295 19.6733 33.3049 19.938C33.5803 20.2028 33.9539 20.3516 34.3434 20.3516C34.7329 20.3516 35.1065 20.2028 35.3819 19.938C35.6573 19.6733 35.8121 19.3141 35.8121 18.9397C35.8121 18.5652 35.6573 18.2061 35.3819 17.9413C35.1065 17.6765 34.7329 17.5277 34.3434 17.5277ZM20.0239 25.9993C20.0239 24.2206 20.7588 22.5147 22.0671 21.257C23.3754 19.9992 25.1498 19.2926 27 19.2926C28.8502 19.2926 30.6247 19.9992 31.933 21.257C33.2412 22.5147 33.9762 24.2206 33.9762 25.9993C33.9762 27.778 33.2412 29.4838 31.933 30.7415C30.6247 31.9993 28.8502 32.7059 27 32.7059C25.1498 32.7059 23.3754 31.9993 22.0671 30.7415C20.7588 29.4838 20.0239 27.778 20.0239 25.9993Z" fill="#004E5A"/>
</svg>
